<svg width="125" height="65" viewBox="0 0 125 65" fill="none" xmlns="http://www.w3.org/2000/svg">
<path d="M11.4141 11.9141C11.7344 11.9141 11.9609 11.9727 12.0938 12.0898C12.2266 12.207 12.293 12.4023 12.293 12.6758V16.0742C12.293 16.3477 12.2266 16.543 12.0938 16.6602C11.9609 16.7773 11.7344 16.8359 11.4141 16.8359C11.0938 16.8359 10.8672 16.7773 10.7344 16.6602C10.6016 16.543 10.5352 16.3477 10.5352 16.0742C10.5352 15.5977 10.4102 15.1758 10.1602 14.8086C9.91016 14.4414 9.53516 14.1562 9.03516 13.9531C8.54297 13.75 7.94922 13.6484 7.25391 13.6484C6.50391 13.6484 5.83203 13.8164 5.23828 14.1523C4.64453 14.4883 4.17969 14.957 3.84375 15.5586C3.50781 16.1602 3.33984 16.8359 3.33984 17.5859C3.33984 18.3438 3.49609 19.0234 3.80859 19.625C4.12891 20.2188 4.57422 20.6836 5.14453 21.0195C5.72266 21.3555 6.38672 21.5234 7.13672 21.5234C7.85547 21.5234 8.55078 21.4141 9.22266 21.1953C9.90234 20.9688 10.5195 20.6445 11.0742 20.2227C11.2383 20.0977 11.3906 20.0352 11.5312 20.0352C11.7578 20.0352 11.9688 20.1953 12.1641 20.5156C12.2812 20.7109 12.3398 20.8984 12.3398 21.0781C12.3398 21.3516 12.2148 21.5781 11.9648 21.7578C11.3398 22.2266 10.6016 22.5938 9.75 22.8594C8.89844 23.125 8.02734 23.2578 7.13672 23.2578C6.01953 23.2578 5.03125 23.0117 4.17188 22.5195C3.32031 22.0273 2.66016 21.3516 2.19141 20.4922C1.72266 19.6328 1.48828 18.6641 1.48828 17.5859C1.48828 16.5078 1.72656 15.5391 2.20312 14.6797C2.67969 13.8203 3.34375 13.1445 4.19531 12.6523C5.05469 12.1602 6.03516 11.9141 7.13672 11.9141C7.83203 11.9141 8.46875 12.043 9.04688 12.3008C9.63281 12.5508 10.1289 12.9102 10.5352 13.3789V12.6758C10.5352 12.4023 10.6016 12.207 10.7344 12.0898C10.8672 11.9727 11.0938 11.9141 11.4141 11.9141ZM23.5059 11.9141C24.5763 11.9141 25.5411 12.1562 26.4005 12.6406C27.2598 13.125 27.9317 13.8008 28.4161 14.668C28.9083 15.5273 29.1544 16.5 29.1544 17.5859C29.1544 18.6719 28.9083 19.6484 28.4161 20.5156C27.9317 21.375 27.2598 22.0469 26.4005 22.5312C25.5411 23.0156 24.5763 23.2578 23.5059 23.2578C22.4356 23.2578 21.4708 23.0156 20.6114 22.5312C19.752 22.0469 19.0763 21.375 18.5841 20.5156C18.0997 19.6484 17.8575 18.6719 17.8575 17.5859C17.8575 16.5 18.0997 15.5273 18.5841 14.668C19.0763 13.8008 19.752 13.125 20.6114 12.6406C21.4708 12.1562 22.4356 11.9141 23.5059 11.9141ZM23.5059 13.6484C22.7481 13.6484 22.0802 13.8164 21.502 14.1523C20.9317 14.4805 20.4903 14.9453 20.1778 15.5469C19.8653 16.1406 19.7091 16.8203 19.7091 17.5859C19.7091 18.3516 19.8653 19.0352 20.1778 19.6367C20.4903 20.2305 20.9317 20.6953 21.502 21.0312C22.0802 21.3594 22.7481 21.5234 23.5059 21.5234C24.2638 21.5234 24.9278 21.3594 25.4981 21.0312C26.0763 20.6953 26.5216 20.2305 26.8341 19.6367C27.1466 19.0352 27.3028 18.3516 27.3028 17.5859C27.3028 16.8203 27.1466 16.1406 26.8341 15.5469C26.5216 14.9453 26.0763 14.4805 25.4981 14.1523C24.9278 13.8164 24.2638 13.6484 23.5059 13.6484ZM41.1408 11.9141C41.8517 11.9141 42.4689 12.0703 42.9923 12.3828C43.5158 12.6875 43.9181 13.1289 44.1994 13.707C44.4806 14.2852 44.6213 14.9609 44.6213 15.7344V21.4062H45.5822C45.8478 21.4062 46.0353 21.4688 46.1447 21.5938C46.2619 21.7109 46.3205 21.9141 46.3205 22.2031C46.3205 22.4922 46.2619 22.6992 46.1447 22.8242C46.0353 22.9414 45.8478 23 45.5822 23H41.7853C41.5197 23 41.3283 22.9414 41.2111 22.8242C41.1017 22.6992 41.047 22.4922 41.047 22.2031C41.047 21.9141 41.1017 21.7109 41.2111 21.5938C41.3283 21.4688 41.5197 21.4062 41.7853 21.4062H42.8634V15.9102C42.8634 15.2148 42.7033 14.6641 42.383 14.2578C42.0627 13.8516 41.59 13.6484 40.965 13.6484C40.3009 13.6484 39.6798 13.8398 39.1017 14.2227C38.5314 14.6055 38.0744 15.1328 37.7306 15.8047C37.3869 16.4766 37.215 17.2266 37.215 18.0547V21.4062H38.2931C38.5588 21.4062 38.7463 21.4688 38.8556 21.5938C38.9728 21.7109 39.0314 21.9141 39.0314 22.2031C39.0314 22.4922 38.9728 22.6992 38.8556 22.8242C38.7463 22.9414 38.5588 23 38.2931 23H34.4963C34.2306 23 34.0392 22.9414 33.922 22.8242C33.8127 22.6992 33.758 22.4922 33.758 22.2031C33.758 21.9141 33.8127 21.7109 33.922 21.5938C34.0392 21.4688 34.2306 21.4062 34.4963 21.4062H35.4572V13.7656H34.2619C33.9963 13.7656 33.8048 13.707 33.6877 13.5898C33.5783 13.4648 33.5236 13.2578 33.5236 12.9688C33.5236 12.6797 33.5783 12.4766 33.6877 12.3594C33.8048 12.2344 33.9963 12.1719 34.2619 12.1719H36.3595C36.6252 12.1719 36.8127 12.2344 36.922 12.3594C37.0392 12.4766 37.0978 12.6797 37.0978 12.9688V14.375C37.6134 13.5781 38.215 12.9688 38.9025 12.5469C39.5978 12.125 40.3439 11.9141 41.1408 11.9141ZM54.2991 8.83203C54.6194 8.83203 54.8459 8.89062 54.9787 9.00781C55.1116 9.125 55.178 9.32031 55.178 9.59375V13.1094H59.9944C60.26 13.1094 60.4475 13.1719 60.5569 13.2969C60.6741 13.4141 60.7327 13.6172 60.7327 13.9062C60.7327 14.1953 60.6741 14.4023 60.5569 14.5273C60.4475 14.6445 60.26 14.7031 59.9944 14.7031H55.178V18.9688C55.178 19.8594 55.3303 20.5117 55.635 20.9258C55.9475 21.3398 56.4866 21.5469 57.2522 21.5469C57.7756 21.5469 58.3264 21.4414 58.9045 21.2305C59.4827 21.0195 60.0412 20.7383 60.5803 20.3867C60.6897 20.3086 60.8108 20.2695 60.9436 20.2695C61.2092 20.2695 61.4358 20.4492 61.6233 20.8086C61.7248 21.0117 61.7756 21.1875 61.7756 21.3359C61.7756 21.5859 61.6467 21.7891 61.3889 21.9453C60.7795 22.3281 60.0998 22.6445 59.3498 22.8945C58.5998 23.1367 57.9006 23.2578 57.2522 23.2578C55.9241 23.2578 54.9514 22.9141 54.3342 22.2266C53.7248 21.5312 53.4202 20.4961 53.4202 19.1211V14.7031H51.0412C50.7756 14.7031 50.5842 14.6445 50.467 14.5273C50.3577 14.4023 50.303 14.1953 50.303 13.9062C50.303 13.6172 50.3577 13.4141 50.467 13.2969C50.5842 13.1719 50.7756 13.1094 51.0412 13.1094H53.4202V9.59375C53.4202 9.32031 53.4866 9.125 53.6194 9.00781C53.7522 8.89062 53.9787 8.83203 54.2991 8.83203ZM72.4847 11.9141C73.9534 11.9141 75.055 12.2422 75.7894 12.8984C76.5238 13.5547 76.8909 14.5273 76.8909 15.8164V20.4805C76.8909 21.0977 77.1488 21.4062 77.6644 21.4062H78.0745C78.3402 21.4062 78.5277 21.4688 78.637 21.5938C78.7542 21.7109 78.8128 21.9141 78.8128 22.2031C78.8128 22.4922 78.7542 22.6992 78.637 22.8242C78.5277 22.9414 78.3402 23 78.0745 23H77.3245C76.8167 23 76.3792 22.875 76.012 22.625C75.6527 22.3672 75.4183 21.9922 75.3089 21.5C74.6683 22.0625 73.973 22.4961 73.223 22.8008C72.4808 23.1055 71.6917 23.2578 70.8558 23.2578C70.0667 23.2578 69.3675 23.125 68.7581 22.8594C68.1566 22.5859 67.6839 22.1914 67.3402 21.6758C66.9964 21.1602 66.8245 20.5469 66.8245 19.8359C66.8245 18.6016 67.2659 17.6914 68.1488 17.1055C69.0316 16.5117 70.1722 16.2148 71.5706 16.2148C72.8128 16.2148 74.0003 16.4141 75.1331 16.8125V15.8164C75.1331 15.0586 74.9183 14.5039 74.4886 14.1523C74.0667 13.793 73.3831 13.6133 72.4378 13.6133C71.8519 13.6133 71.2425 13.6953 70.6097 13.8594C69.9769 14.0234 69.3753 14.25 68.805 14.5391C68.6722 14.6094 68.5511 14.6445 68.4417 14.6445C68.1839 14.6445 67.9691 14.457 67.7972 14.082C67.7113 13.8945 67.6683 13.7383 67.6683 13.6133C67.6683 13.3398 67.8128 13.1289 68.1019 12.9805C68.7581 12.6367 69.4613 12.375 70.2113 12.1953C70.9691 12.0078 71.7269 11.9141 72.4847 11.9141ZM71.5823 17.8672C70.6839 17.8672 69.973 18.0234 69.4495 18.3359C68.9339 18.6406 68.6761 19.1289 68.6761 19.8008C68.6761 20.3711 68.8714 20.8164 69.262 21.1367C69.6605 21.4492 70.2152 21.6055 70.9261 21.6055C72.4808 21.6055 73.8831 20.9609 75.1331 19.6719V18.3945C74.6019 18.2227 74.0316 18.0938 73.4222 18.0078C72.8128 17.9141 72.1995 17.8672 71.5823 17.8672ZM92.9672 11.9141C93.2875 11.9141 93.5141 11.9727 93.6469 12.0898C93.7797 12.207 93.8461 12.4023 93.8461 12.6758V16.0742C93.8461 16.3477 93.7797 16.543 93.6469 16.6602C93.5141 16.7773 93.2875 16.8359 92.9672 16.8359C92.6469 16.8359 92.4203 16.7773 92.2875 16.6602C92.1547 16.543 92.0883 16.3477 92.0883 16.0742C92.0883 15.5977 91.9633 15.1758 91.7133 14.8086C91.4633 14.4414 91.0883 14.1562 90.5883 13.9531C90.0961 13.75 89.5023 13.6484 88.807 13.6484C88.057 13.6484 87.3852 13.8164 86.7914 14.1523C86.1977 14.4883 85.7328 14.957 85.3969 15.5586C85.0609 16.1602 84.893 16.8359 84.893 17.5859C84.893 18.3438 85.0492 19.0234 85.3617 19.625C85.682 20.2188 86.1273 20.6836 86.6977 21.0195C87.2758 21.3555 87.9398 21.5234 88.6898 21.5234C89.4086 21.5234 90.1039 21.4141 90.7758 21.1953C91.4555 20.9688 92.0727 20.6445 92.6273 20.2227C92.7914 20.0977 92.9437 20.0352 93.0844 20.0352C93.3109 20.0352 93.5219 20.1953 93.7172 20.5156C93.8344 20.7109 93.893 20.8984 93.893 21.0781C93.893 21.3516 93.768 21.5781 93.518 21.7578C92.893 22.2266 92.1547 22.5938 91.3031 22.8594C90.4516 23.125 89.5805 23.2578 88.6898 23.2578C87.5727 23.2578 86.5844 23.0117 85.725 22.5195C84.8734 22.0273 84.2133 21.3516 83.7445 20.4922C83.2758 19.6328 83.0414 18.6641 83.0414 17.5859C83.0414 16.5078 83.2797 15.5391 83.7562 14.6797C84.2328 13.8203 84.8969 13.1445 85.7484 12.6523C86.6078 12.1602 87.5883 11.9141 88.6898 11.9141C89.3852 11.9141 90.0219 12.043 90.6 12.3008C91.1859 12.5508 91.682 12.9102 92.0883 13.3789V12.6758C92.0883 12.4023 92.1547 12.207 92.2875 12.0898C92.4203 11.9727 92.6469 11.9141 92.9672 11.9141ZM103.231 8.83203C103.551 8.83203 103.778 8.89062 103.911 9.00781C104.043 9.125 104.11 9.32031 104.11 9.59375V13.1094H108.926C109.192 13.1094 109.379 13.1719 109.489 13.2969C109.606 13.4141 109.665 13.6172 109.665 13.9062C109.665 14.1953 109.606 14.4023 109.489 14.5273C109.379 14.6445 109.192 14.7031 108.926 14.7031H104.11V18.9688C104.11 19.8594 104.262 20.5117 104.567 20.9258C104.879 21.3398 105.418 21.5469 106.184 21.5469C106.707 21.5469 107.258 21.4414 107.836 21.2305C108.415 21.0195 108.973 20.7383 109.512 20.3867C109.622 20.3086 109.743 20.2695 109.875 20.2695C110.141 20.2695 110.368 20.4492 110.555 20.8086C110.657 21.0117 110.707 21.1875 110.707 21.3359C110.707 21.5859 110.579 21.7891 110.321 21.9453C109.711 22.3281 109.032 22.6445 108.282 22.8945C107.532 23.1367 106.832 23.2578 106.184 23.2578C104.856 23.2578 103.883 22.9141 103.266 22.2266C102.657 21.5312 102.352 20.4961 102.352 19.1211V14.7031H99.9731C99.7075 14.7031 99.5161 14.6445 99.3989 14.5273C99.2895 14.4023 99.2348 14.1953 99.2348 13.9062C99.2348 13.6172 99.2895 13.4141 99.3989 13.2969C99.5161 13.1719 99.7075 13.1094 99.9731 13.1094H102.352V9.59375C102.352 9.32031 102.418 9.125 102.551 9.00781C102.684 8.89062 102.911 8.83203 103.231 8.83203Z" fill="#3C3C3C"/>
<path d="M112.719 22.0202L120.932 29.8604L92.9983 30.0521" stroke="#E97575" stroke-width="3"/>
</svg>
