<svg width="163" height="65" viewBox="0 0 163 65" fill="none" xmlns="http://www.w3.org/2000/svg">
<path d="M11.5664 8.83203C11.8867 8.83203 12.1133 8.89062 12.2461 9.00781C12.3789 9.125 12.4453 9.32031 12.4453 9.59375V12.9922C12.4453 13.2656 12.3789 13.4609 12.2461 13.5781C12.1133 13.6953 11.8867 13.7539 11.5664 13.7539C11.2461 13.7539 11.0195 13.6953 10.8867 13.5781C10.7539 13.4609 10.6875 13.2656 10.6875 12.9922C10.6875 12.5234 10.5586 12.1055 10.3008 11.7383C10.0508 11.3711 9.67969 11.0859 9.1875 10.8828C8.69531 10.6719 8.10938 10.5664 7.42969 10.5664C6.5625 10.5664 5.79297 10.7891 5.12109 11.2344C4.45703 11.6797 3.9375 12.3164 3.5625 13.1445C3.1875 13.9727 3 14.9414 3 16.0508C3 17.1602 3.17578 18.1289 3.52734 18.957C3.88672 19.7773 4.39062 20.4102 5.03906 20.8555C5.69531 21.3008 6.45312 21.5234 7.3125 21.5234C8.67969 21.5234 9.84766 21.3008 10.8164 20.8555V18.1953H7.92188C7.65625 18.1953 7.46484 18.1367 7.34766 18.0195C7.23828 17.8945 7.18359 17.6875 7.18359 17.3984C7.18359 17.1094 7.23828 16.9062 7.34766 16.7891C7.46484 16.6641 7.65625 16.6016 7.92188 16.6016H12.9492C13.2148 16.6016 13.4023 16.6641 13.5117 16.7891C13.6289 16.9062 13.6875 17.1094 13.6875 17.3984C13.6875 17.6875 13.6289 17.8945 13.5117 18.0195C13.4023 18.1367 13.2148 18.1953 12.9492 18.1953H12.5742V21.3242C12.5742 21.707 12.4336 21.9766 12.1523 22.1328C11.5117 22.5 10.7734 22.7812 9.9375 22.9766C9.10156 23.1641 8.22656 23.2578 7.3125 23.2578C6.09375 23.2578 5.01562 22.9609 4.07812 22.3672C3.14844 21.7656 2.42578 20.9219 1.91016 19.8359C1.40234 18.7422 1.14844 17.4805 1.14844 16.0508C1.14844 14.6289 1.41016 13.3711 1.93359 12.2773C2.46484 11.1836 3.19531 10.3359 4.125 9.73438C5.0625 9.13281 6.125 8.83203 7.3125 8.83203C8.04688 8.83203 8.69531 8.94922 9.25781 9.18359C9.82812 9.41016 10.3047 9.73828 10.6875 10.168V9.59375C10.6875 9.32031 10.7539 9.125 10.8867 9.00781C11.0195 8.89062 11.2461 8.83203 11.5664 8.83203ZM23.9278 12.1719C24.1934 12.1719 24.3809 12.2344 24.4903 12.3594C24.6075 12.4766 24.6661 12.6797 24.6661 12.9688V21.4062H28.4278C28.6934 21.4062 28.8809 21.4688 28.9903 21.5938C29.1075 21.7109 29.1661 21.9141 29.1661 22.2031C29.1661 22.4922 29.1075 22.6992 28.9903 22.8242C28.8809 22.9414 28.6934 23 28.4278 23H19.2403C18.9747 23 18.7833 22.9414 18.6661 22.8242C18.5567 22.6992 18.502 22.4922 18.502 22.2031C18.502 21.9141 18.5567 21.7109 18.6661 21.5938C18.7833 21.4688 18.9747 21.4062 19.2403 21.4062H22.9083V13.7656H19.9434C19.6778 13.7656 19.4864 13.707 19.3692 13.5898C19.2598 13.4648 19.2052 13.2578 19.2052 12.9688C19.2052 12.6797 19.2598 12.4766 19.3692 12.3594C19.4864 12.2344 19.6778 12.1719 19.9434 12.1719H23.9278ZM23.5528 7.02734C23.9825 7.02734 24.2755 7.08594 24.4317 7.20312C24.588 7.3125 24.6661 7.50781 24.6661 7.78906V9.3125C24.6661 9.59375 24.588 9.79297 24.4317 9.91016C24.2755 10.0195 23.9825 10.0742 23.5528 10.0742C23.1231 10.0742 22.8302 10.0195 22.6739 9.91016C22.5177 9.79297 22.4395 9.59375 22.4395 9.3125V7.78906C22.4395 7.50781 22.5177 7.3125 22.6739 7.20312C22.8302 7.08594 23.1231 7.02734 23.5528 7.02734ZM37.9884 8.83203C38.3088 8.83203 38.5353 8.89062 38.6681 9.00781C38.8009 9.125 38.8673 9.32031 38.8673 9.59375V13.1094H43.6838C43.9494 13.1094 44.1369 13.1719 44.2463 13.2969C44.3634 13.4141 44.422 13.6172 44.422 13.9062C44.422 14.1953 44.3634 14.4023 44.2463 14.5273C44.1369 14.6445 43.9494 14.7031 43.6838 14.7031H38.8673V18.9688C38.8673 19.8594 39.0197 20.5117 39.3244 20.9258C39.6369 21.3398 40.1759 21.5469 40.9416 21.5469C41.465 21.5469 42.0158 21.4414 42.5939 21.2305C43.172 21.0195 43.7306 20.7383 44.2697 20.3867C44.3791 20.3086 44.5002 20.2695 44.633 20.2695C44.8986 20.2695 45.1252 20.4492 45.3127 20.8086C45.4142 21.0117 45.465 21.1875 45.465 21.3359C45.465 21.5859 45.3361 21.7891 45.0783 21.9453C44.4689 22.3281 43.7892 22.6445 43.0392 22.8945C42.2892 23.1367 41.59 23.2578 40.9416 23.2578C39.6134 23.2578 38.6408 22.9141 38.0236 22.2266C37.4142 21.5312 37.1095 20.4961 37.1095 19.1211V14.7031H34.7306C34.465 14.7031 34.2736 14.6445 34.1564 14.5273C34.047 14.4023 33.9923 14.1953 33.9923 13.9062C33.9923 13.6172 34.047 13.4141 34.1564 13.2969C34.2736 13.1719 34.465 13.1094 34.7306 13.1094H37.1095V9.59375C37.1095 9.32031 37.1759 9.125 37.3088 9.00781C37.4416 8.89062 37.6681 8.83203 37.9884 8.83203ZM61.6467 9.08984C61.9123 9.08984 62.0998 9.15234 62.2092 9.27734C62.3264 9.39453 62.385 9.59766 62.385 9.88672C62.385 10.1758 62.3264 10.3828 62.2092 10.5078C62.0998 10.625 61.9123 10.6836 61.6467 10.6836H60.803V21.4062H61.6467C61.9123 21.4062 62.0998 21.4688 62.2092 21.5938C62.3264 21.7109 62.385 21.9141 62.385 22.2031C62.385 22.4922 62.3264 22.6992 62.2092 22.8242C62.0998 22.9414 61.9123 23 61.6467 23H57.967C57.7014 23 57.51 22.9414 57.3928 22.8242C57.2834 22.6992 57.2287 22.4922 57.2287 22.2031C57.2287 21.9141 57.2834 21.7109 57.3928 21.5938C57.51 21.4688 57.7014 21.4062 57.967 21.4062H59.0452V16.625H53.2092V21.4062H54.2873C54.553 21.4062 54.7405 21.4688 54.8498 21.5938C54.967 21.7109 55.0256 21.9141 55.0256 22.2031C55.0256 22.4922 54.967 22.6992 54.8498 22.8242C54.7405 22.9414 54.553 23 54.2873 23H50.6077C50.342 23 50.1506 22.9414 50.0334 22.8242C49.9241 22.6992 49.8694 22.4922 49.8694 22.2031C49.8694 21.9141 49.9241 21.7109 50.0334 21.5938C50.1506 21.4688 50.342 21.4062 50.6077 21.4062H51.4514V10.6836H50.6077C50.342 10.6836 50.1506 10.625 50.0334 10.5078C49.9241 10.3828 49.8694 10.1758 49.8694 9.88672C49.8694 9.59766 49.9241 9.39453 50.0334 9.27734C50.1506 9.15234 50.342 9.08984 50.6077 9.08984H54.2873C54.553 9.08984 54.7405 9.15234 54.8498 9.27734C54.967 9.39453 55.0256 9.59766 55.0256 9.88672C55.0256 10.1758 54.967 10.3828 54.8498 10.5078C54.7405 10.625 54.553 10.6836 54.2873 10.6836H53.2092V15.0312H59.0452V10.6836H57.967C57.7014 10.6836 57.51 10.625 57.3928 10.5078C57.2834 10.3828 57.2287 10.1758 57.2287 9.88672C57.2287 9.59766 57.2834 9.39453 57.3928 9.27734C57.51 9.15234 57.7014 9.08984 57.967 9.08984H61.6467ZM76.2113 12.1719C76.4769 12.1719 76.6644 12.2344 76.7738 12.3594C76.8909 12.4766 76.9495 12.6797 76.9495 12.9688V21.4062H77.9105C78.1761 21.4062 78.3636 21.4688 78.473 21.5938C78.5902 21.7109 78.6488 21.9141 78.6488 22.2031C78.6488 22.4922 78.5902 22.6992 78.473 22.8242C78.3636 22.9414 78.1761 23 77.9105 23H76.0472C75.7816 23 75.5902 22.9414 75.473 22.8242C75.3636 22.707 75.3089 22.5039 75.3089 22.2148V20.7969C74.7933 21.5938 74.1878 22.2031 73.4925 22.625C72.805 23.0469 72.0628 23.2578 71.2659 23.2578C70.555 23.2578 69.9378 23.1055 69.4144 22.8008C68.8909 22.4883 68.4886 22.043 68.2073 21.4648C67.9261 20.8867 67.7855 20.2109 67.7855 19.4375V13.7656H66.8245C66.5589 13.7656 66.3675 13.707 66.2503 13.5898C66.1409 13.4648 66.0863 13.2578 66.0863 12.9688C66.0863 12.6797 66.1409 12.4766 66.2503 12.3594C66.3675 12.2344 66.5589 12.1719 66.8245 12.1719H68.805C69.0706 12.1719 69.2581 12.2344 69.3675 12.3594C69.4847 12.4766 69.5433 12.6797 69.5433 12.9688V19.2617C69.5433 19.957 69.7034 20.5078 70.0238 20.9141C70.3441 21.3203 70.8167 21.5234 71.4417 21.5234C72.1058 21.5234 72.723 21.332 73.2933 20.9492C73.8714 20.5664 74.3323 20.0391 74.6761 19.3672C75.0198 18.6953 75.1917 17.9453 75.1917 17.1172V13.7656H73.5277C73.262 13.7656 73.0706 13.707 72.9534 13.5898C72.8441 13.4648 72.7894 13.2578 72.7894 12.9688C72.7894 12.6797 72.8441 12.4766 72.9534 12.3594C73.0706 12.2344 73.262 12.1719 73.5277 12.1719H76.2113ZM84.9398 7.625C85.2055 7.625 85.393 7.6875 85.5023 7.8125C85.6195 7.92969 85.6781 8.13281 85.6781 8.42188V13.8477C86.6859 12.5586 87.9242 11.9141 89.393 11.9141C90.3617 11.9141 91.2289 12.1445 91.9945 12.6055C92.7602 13.0586 93.3617 13.7148 93.7992 14.5742C94.2367 15.4258 94.4555 16.4297 94.4555 17.5859C94.4555 18.7422 94.2367 19.75 93.7992 20.6094C93.3617 21.4609 92.7602 22.1172 91.9945 22.5781C91.2289 23.0312 90.3617 23.2578 89.393 23.2578C88.6273 23.2578 87.9203 23.0859 87.2719 22.7422C86.6234 22.3984 86.0531 21.9062 85.5609 21.2656V22.2031C85.5609 22.4922 85.5023 22.6992 85.3852 22.8242C85.2758 22.9414 85.0883 23 84.8227 23H82.9594C82.6937 23 82.5023 22.9414 82.3852 22.8242C82.2758 22.6992 82.2211 22.4922 82.2211 22.2031C82.2211 21.9141 82.2758 21.7109 82.3852 21.5938C82.5023 21.4688 82.6937 21.4062 82.9594 21.4062H83.9203V9.21875H82.725C82.4594 9.21875 82.268 9.16016 82.1508 9.04297C82.0414 8.91797 81.9867 8.71094 81.9867 8.42188C81.9867 8.13281 82.0414 7.92969 82.1508 7.8125C82.268 7.6875 82.4594 7.625 82.725 7.625H84.9398ZM89.2758 13.6484C88.5805 13.6484 87.9594 13.8047 87.4125 14.1172C86.8734 14.4297 86.4477 14.8828 86.1352 15.4766C85.8305 16.0703 85.6781 16.7734 85.6781 17.5859C85.6781 18.3984 85.8305 19.1016 86.1352 19.6953C86.4477 20.2891 86.8734 20.7422 87.4125 21.0547C87.9594 21.3672 88.5805 21.5234 89.2758 21.5234C89.9711 21.5234 90.5687 21.3594 91.0687 21.0312C91.5687 20.6953 91.9477 20.2305 92.2055 19.6367C92.4711 19.043 92.6039 18.3594 92.6039 17.5859C92.6039 16.8125 92.4711 16.1289 92.2055 15.5352C91.9477 14.9414 91.5687 14.4805 91.0687 14.1523C90.5687 13.8164 89.9711 13.6484 89.2758 13.6484Z" fill="black"/>
<path d="M106.734 22.5209L119.134 34.9203L76 34.2132" stroke="#E97575" stroke-width="3"/>
</svg>
