<svg width="163" height="65" viewBox="0 0 163 65" fill="none" xmlns="http://www.w3.org/2000/svg">
<path d="M8.16797 9.08984C8.43359 9.08984 8.62109 9.15234 8.73047 9.27734C8.84766 9.39453 8.90625 9.59766 8.90625 9.88672C8.90625 10.1758 8.84766 10.3828 8.73047 10.5078C8.62109 10.625 8.43359 10.6836 8.16797 10.6836H5.33203V21.4062H11.1328V17.5508C11.1328 17.2773 11.1992 17.082 11.332 16.9648C11.4648 16.8477 11.6914 16.7891 12.0117 16.7891C12.332 16.7891 12.5586 16.8477 12.6914 16.9648C12.8242 17.082 12.8906 17.2773 12.8906 17.5508V22.2031C12.8906 22.4922 12.832 22.6992 12.7148 22.8242C12.6055 22.9414 12.418 23 12.1523 23H1.67578C1.41016 23 1.21875 22.9414 1.10156 22.8242C0.992188 22.6992 0.9375 22.4922 0.9375 22.2031C0.9375 21.9141 0.992188 21.7109 1.10156 21.5938C1.21875 21.4688 1.41016 21.4062 1.67578 21.4062H3.57422V10.6836H1.67578C1.41016 10.6836 1.21875 10.625 1.10156 10.5078C0.992188 10.3828 0.9375 10.1758 0.9375 9.88672C0.9375 9.59766 0.992188 9.39453 1.10156 9.27734C1.21875 9.15234 1.41016 9.08984 1.67578 9.08984H8.16797ZM23.9278 12.1719C24.1934 12.1719 24.3809 12.2344 24.4903 12.3594C24.6075 12.4766 24.6661 12.6797 24.6661 12.9688V21.4062H28.4278C28.6934 21.4062 28.8809 21.4688 28.9903 21.5938C29.1075 21.7109 29.1661 21.9141 29.1661 22.2031C29.1661 22.4922 29.1075 22.6992 28.9903 22.8242C28.8809 22.9414 28.6934 23 28.4278 23H19.2403C18.9747 23 18.7833 22.9414 18.6661 22.8242C18.5567 22.6992 18.502 22.4922 18.502 22.2031C18.502 21.9141 18.5567 21.7109 18.6661 21.5938C18.7833 21.4688 18.9747 21.4062 19.2403 21.4062H22.9083V13.7656H19.9434C19.6778 13.7656 19.4864 13.707 19.3692 13.5898C19.2598 13.4648 19.2052 13.2578 19.2052 12.9688C19.2052 12.6797 19.2598 12.4766 19.3692 12.3594C19.4864 12.2344 19.6778 12.1719 19.9434 12.1719H23.9278ZM23.5528 7.02734C23.9825 7.02734 24.2755 7.08594 24.4317 7.20312C24.588 7.3125 24.6661 7.50781 24.6661 7.78906V9.3125C24.6661 9.59375 24.588 9.79297 24.4317 9.91016C24.2755 10.0195 23.9825 10.0742 23.5528 10.0742C23.1231 10.0742 22.8302 10.0195 22.6739 9.91016C22.5177 9.79297 22.4395 9.59375 22.4395 9.3125V7.78906C22.4395 7.50781 22.5177 7.3125 22.6739 7.20312C22.8302 7.08594 23.1231 7.02734 23.5528 7.02734ZM41.1408 11.9141C41.8517 11.9141 42.4689 12.0703 42.9923 12.3828C43.5158 12.6875 43.9181 13.1289 44.1994 13.707C44.4806 14.2852 44.6213 14.9609 44.6213 15.7344V21.4062H45.5822C45.8478 21.4062 46.0353 21.4688 46.1447 21.5938C46.2619 21.7109 46.3205 21.9141 46.3205 22.2031C46.3205 22.4922 46.2619 22.6992 46.1447 22.8242C46.0353 22.9414 45.8478 23 45.5822 23H41.7853C41.5197 23 41.3283 22.9414 41.2111 22.8242C41.1017 22.6992 41.047 22.4922 41.047 22.2031C41.047 21.9141 41.1017 21.7109 41.2111 21.5938C41.3283 21.4688 41.5197 21.4062 41.7853 21.4062H42.8634V15.9102C42.8634 15.2148 42.7033 14.6641 42.383 14.2578C42.0627 13.8516 41.59 13.6484 40.965 13.6484C40.3009 13.6484 39.6798 13.8398 39.1017 14.2227C38.5314 14.6055 38.0744 15.1328 37.7306 15.8047C37.3869 16.4766 37.215 17.2266 37.215 18.0547V21.4062H38.2931C38.5588 21.4062 38.7463 21.4688 38.8556 21.5938C38.9728 21.7109 39.0314 21.9141 39.0314 22.2031C39.0314 22.4922 38.9728 22.6992 38.8556 22.8242C38.7463 22.9414 38.5588 23 38.2931 23H34.4963C34.2306 23 34.0392 22.9414 33.922 22.8242C33.8127 22.6992 33.758 22.4922 33.758 22.2031C33.758 21.9141 33.8127 21.7109 33.922 21.5938C34.0392 21.4688 34.2306 21.4062 34.4963 21.4062H35.4572V13.7656H34.2619C33.9963 13.7656 33.8048 13.707 33.6877 13.5898C33.5783 13.4648 33.5236 13.2578 33.5236 12.9688C33.5236 12.6797 33.5783 12.4766 33.6877 12.3594C33.8048 12.2344 33.9963 12.1719 34.2619 12.1719H36.3595C36.6252 12.1719 36.8127 12.2344 36.922 12.3594C37.0392 12.4766 37.0978 12.6797 37.0978 12.9688V14.375C37.6134 13.5781 38.215 12.9688 38.9025 12.5469C39.5978 12.125 40.3439 11.9141 41.1408 11.9141ZM61.7756 21.4062C62.0412 21.4062 62.2287 21.4688 62.3381 21.5938C62.4553 21.7109 62.5139 21.9141 62.5139 22.2031C62.5139 22.4922 62.4553 22.6992 62.3381 22.8242C62.2287 22.9414 62.0412 23 61.7756 23H57.9787C57.7131 23 57.5217 22.9414 57.4045 22.8242C57.2952 22.6992 57.2405 22.4922 57.2405 22.2031C57.2405 21.9141 57.2952 21.7109 57.4045 21.5938C57.5217 21.4688 57.7131 21.4062 57.9787 21.4062H58.8225L55.8811 17.9141L53.7483 19.7891V21.4062H54.6037C54.8694 21.4062 55.0569 21.4688 55.1662 21.5938C55.2834 21.7109 55.342 21.9141 55.342 22.2031C55.342 22.4922 55.2834 22.6992 55.1662 22.8242C55.0569 22.9414 54.8694 23 54.6037 23H50.6897C50.4241 23 50.2327 22.9414 50.1155 22.8242C50.0061 22.6992 49.9514 22.4922 49.9514 22.2031C49.9514 21.9141 50.0061 21.7109 50.1155 21.5938C50.2327 21.4688 50.4241 21.4062 50.6897 21.4062H51.9905V9.21875H50.4553C50.1897 9.21875 49.9983 9.16016 49.8811 9.04297C49.7717 8.91797 49.717 8.71094 49.717 8.42188C49.717 8.13281 49.7717 7.92969 49.8811 7.8125C49.9983 7.6875 50.1897 7.625 50.4553 7.625H53.01C53.2756 7.625 53.4631 7.6875 53.5725 7.8125C53.6897 7.92969 53.7483 8.13281 53.7483 8.42188V17.7031L58.2131 13.7656H57.3811C57.1155 13.7656 56.9241 13.707 56.8069 13.5898C56.6975 13.4648 56.6428 13.2578 56.6428 12.9688C56.6428 12.6797 56.6975 12.4766 56.8069 12.3594C56.9241 12.2344 57.1155 12.1719 57.3811 12.1719H61.2952C61.5608 12.1719 61.7483 12.2344 61.8577 12.3594C61.9748 12.4766 62.0334 12.6797 62.0334 12.9688C62.0334 13.2578 61.9748 13.4648 61.8577 13.5898C61.7483 13.707 61.5608 13.7656 61.2952 13.7656H60.6037L57.1584 16.8008L61.0959 21.4062H61.7756ZM72.5433 11.9141C73.6761 11.9141 74.6409 12.1445 75.4378 12.6055C76.2425 13.0586 76.8597 13.6914 77.2894 14.5039C77.7191 15.3086 77.9652 16.2383 78.0277 17.293C78.0277 17.5586 77.9691 17.7461 77.8519 17.8555C77.7425 17.9648 77.555 18.0195 77.2894 18.0195H68.805C68.8597 19.1836 69.2034 20.0664 69.8363 20.668C70.4769 21.2617 71.3792 21.5586 72.5433 21.5586C73.262 21.5586 73.973 21.4688 74.6761 21.2891C75.3792 21.1016 75.9964 20.8555 76.5277 20.5508C76.6605 20.4805 76.7816 20.4453 76.8909 20.4453C77.1644 20.4453 77.387 20.6523 77.5589 21.0664C77.6292 21.2305 77.6644 21.3789 77.6644 21.5117C77.6644 21.8242 77.4925 22.0664 77.1488 22.2383C76.5472 22.543 75.8363 22.7891 75.0159 22.9766C74.1956 23.1641 73.3714 23.2578 72.5433 23.2578C71.3636 23.2578 70.3558 23.0312 69.5198 22.5781C68.6839 22.125 68.0472 21.4727 67.6097 20.6211C67.1722 19.7695 66.9534 18.7578 66.9534 17.5859C66.9534 16.4688 67.1917 15.4805 67.6683 14.6211C68.1448 13.7617 68.805 13.0977 69.6488 12.6289C70.4925 12.1523 71.4573 11.9141 72.5433 11.9141ZM72.5433 13.6133C71.5823 13.6133 70.7855 13.8594 70.1527 14.3516C69.5277 14.8359 69.1175 15.5117 68.9222 16.3789H76.0823C75.9183 15.4805 75.5394 14.7969 74.9456 14.3281C74.3597 13.8516 73.5589 13.6133 72.5433 13.6133ZM92.8383 7.625C93.1039 7.625 93.2914 7.6875 93.4008 7.8125C93.518 7.92969 93.5766 8.13281 93.5766 8.42188V21.4062H94.5375C94.8031 21.4062 94.9906 21.4688 95.1 21.5938C95.2172 21.7109 95.2758 21.9141 95.2758 22.2031C95.2758 22.4922 95.2172 22.6992 95.1 22.8242C94.9906 22.9414 94.8031 23 94.5375 23H92.6742C92.4086 23 92.2172 22.9414 92.1 22.8242C91.9906 22.6992 91.9359 22.4922 91.9359 22.2031V21.2656C91.4437 21.9062 90.8734 22.3984 90.225 22.7422C89.5766 23.0859 88.8695 23.2578 88.1039 23.2578C87.1352 23.2578 86.268 23.0312 85.5023 22.5781C84.7367 22.1172 84.1352 21.4609 83.6977 20.6094C83.2602 19.75 83.0414 18.7422 83.0414 17.5859C83.0414 16.4297 83.2602 15.4258 83.6977 14.5742C84.1352 13.7148 84.7367 13.0586 85.5023 12.6055C86.268 12.1445 87.1352 11.9141 88.1039 11.9141C89.5727 11.9141 90.8109 12.5586 91.8187 13.8477V9.21875H89.9203C89.6547 9.21875 89.4633 9.16016 89.3461 9.04297C89.2367 8.91797 89.182 8.71094 89.182 8.42188C89.182 8.13281 89.2367 7.92969 89.3461 7.8125C89.4633 7.6875 89.6547 7.625 89.9203 7.625H92.8383ZM88.2211 13.6484C87.5258 13.6484 86.9281 13.8164 86.4281 14.1523C85.9281 14.4805 85.5453 14.9414 85.2797 15.5352C85.0219 16.1289 84.893 16.8125 84.893 17.5859C84.893 18.3594 85.0219 19.043 85.2797 19.6367C85.5453 20.2305 85.9281 20.6953 86.4281 21.0312C86.9281 21.3594 87.5258 21.5234 88.2211 21.5234C88.9164 21.5234 89.5336 21.3672 90.0727 21.0547C90.6195 20.7422 91.0453 20.2891 91.35 19.6953C91.6625 19.1016 91.8187 18.3984 91.8187 17.5859C91.8187 16.7734 91.6625 16.0703 91.35 15.4766C91.0453 14.8828 90.6195 14.4297 90.0727 14.1172C89.5336 13.8047 88.9164 13.6484 88.2211 13.6484ZM105.481 12.1719C105.747 12.1719 105.934 12.2344 106.043 12.3594C106.161 12.4766 106.219 12.6797 106.219 12.9688V21.4062H109.981C110.247 21.4062 110.434 21.4688 110.543 21.5938C110.661 21.7109 110.719 21.9141 110.719 22.2031C110.719 22.4922 110.661 22.6992 110.543 22.8242C110.434 22.9414 110.247 23 109.981 23H100.793C100.528 23 100.336 22.9414 100.219 22.8242C100.11 22.6992 100.055 22.4922 100.055 22.2031C100.055 21.9141 100.11 21.7109 100.219 21.5938C100.336 21.4688 100.528 21.4062 100.793 21.4062H104.461V13.7656H101.497C101.231 13.7656 101.04 13.707 100.922 13.5898C100.813 13.4648 100.758 13.2578 100.758 12.9688C100.758 12.6797 100.813 12.4766 100.922 12.3594C101.04 12.2344 101.231 12.1719 101.497 12.1719H105.481ZM105.106 7.02734C105.536 7.02734 105.829 7.08594 105.985 7.20312C106.141 7.3125 106.219 7.50781 106.219 7.78906V9.3125C106.219 9.59375 106.141 9.79297 105.985 9.91016C105.829 10.0195 105.536 10.0742 105.106 10.0742C104.676 10.0742 104.383 10.0195 104.227 9.91016C104.071 9.79297 103.993 9.59375 103.993 9.3125V7.78906C103.993 7.50781 104.071 7.3125 104.227 7.20312C104.383 7.08594 104.676 7.02734 105.106 7.02734ZM122.694 11.9141C123.405 11.9141 124.022 12.0703 124.545 12.3828C125.069 12.6875 125.471 13.1289 125.753 13.707C126.034 14.2852 126.174 14.9609 126.174 15.7344V21.4062H127.135C127.401 21.4062 127.588 21.4688 127.698 21.5938C127.815 21.7109 127.874 21.9141 127.874 22.2031C127.874 22.4922 127.815 22.6992 127.698 22.8242C127.588 22.9414 127.401 23 127.135 23H123.338C123.073 23 122.881 22.9414 122.764 22.8242C122.655 22.6992 122.6 22.4922 122.6 22.2031C122.6 21.9141 122.655 21.7109 122.764 21.5938C122.881 21.4688 123.073 21.4062 123.338 21.4062H124.417V15.9102C124.417 15.2148 124.256 14.6641 123.936 14.2578C123.616 13.8516 123.143 13.6484 122.518 13.6484C121.854 13.6484 121.233 13.8398 120.655 14.2227C120.085 14.6055 119.628 15.1328 119.284 15.8047C118.94 16.4766 118.768 17.2266 118.768 18.0547V21.4062H119.846C120.112 21.4062 120.299 21.4688 120.409 21.5938C120.526 21.7109 120.585 21.9141 120.585 22.2031C120.585 22.4922 120.526 22.6992 120.409 22.8242C120.299 22.9414 120.112 23 119.846 23H116.049C115.784 23 115.592 22.9414 115.475 22.8242C115.366 22.6992 115.311 22.4922 115.311 22.2031C115.311 21.9141 115.366 21.7109 115.475 21.5938C115.592 21.4688 115.784 21.4062 116.049 21.4062H117.01V13.7656H115.815C115.549 13.7656 115.358 13.707 115.241 13.5898C115.131 13.4648 115.077 13.2578 115.077 12.9688C115.077 12.6797 115.131 12.4766 115.241 12.3594C115.358 12.2344 115.549 12.1719 115.815 12.1719H117.913C118.178 12.1719 118.366 12.2344 118.475 12.3594C118.592 12.4766 118.651 12.6797 118.651 12.9688V14.375C119.167 13.5781 119.768 12.9688 120.456 12.5469C121.151 12.125 121.897 11.9141 122.694 11.9141Z" fill="black"/>
<path d="M138.734 20.5209L151.133 32.9203L108 32.2132" stroke="#E97575" stroke-width="3"/>
</svg>
