<svg width="290" height="14" viewBox="0 0 290 14" fill="none" xmlns="http://www.w3.org/2000/svg">
<path d="M12.7148 0.0898438C12.9805 0.0898438 13.168 0.152344 13.2773 0.277344C13.3945 0.394531 13.4531 0.597656 13.4531 0.886719C13.4531 1.17578 13.3945 1.38281 13.2773 1.50781C13.168 1.625 12.9805 1.68359 12.7148 1.68359H11.8711V12.4062H12.7148C12.9805 12.4062 13.168 12.4688 13.2773 12.5938C13.3945 12.7109 13.4531 12.9141 13.4531 13.2031C13.4531 13.4922 13.3945 13.6992 13.2773 13.8242C13.168 13.9414 12.9805 14 12.7148 14H9.03516C8.76953 14 8.57812 13.9414 8.46094 13.8242C8.35156 13.6992 8.29688 13.4922 8.29688 13.2031C8.29688 12.9141 8.35156 12.7109 8.46094 12.5938C8.57812 12.4688 8.76953 12.4062 9.03516 12.4062H10.1133V7.625H4.27734V12.4062H5.35547C5.62109 12.4062 5.80859 12.4688 5.91797 12.5938C6.03516 12.7109 6.09375 12.9141 6.09375 13.2031C6.09375 13.4922 6.03516 13.6992 5.91797 13.8242C5.80859 13.9414 5.62109 14 5.35547 14H1.67578C1.41016 14 1.21875 13.9414 1.10156 13.8242C0.992188 13.6992 0.9375 13.4922 0.9375 13.2031C0.9375 12.9141 0.992188 12.7109 1.10156 12.5938C1.21875 12.4688 1.41016 12.4062 1.67578 12.4062H2.51953V1.68359H1.67578C1.41016 1.68359 1.21875 1.625 1.10156 1.50781C0.992188 1.38281 0.9375 1.17578 0.9375 0.886719C0.9375 0.597656 0.992188 0.394531 1.10156 0.277344C1.21875 0.152344 1.41016 0.0898438 1.67578 0.0898438H5.35547C5.62109 0.0898438 5.80859 0.152344 5.91797 0.277344C6.03516 0.394531 6.09375 0.597656 6.09375 0.886719C6.09375 1.17578 6.03516 1.38281 5.91797 1.50781C5.80859 1.625 5.62109 1.68359 5.35547 1.68359H4.27734V6.03125H10.1133V1.68359H9.03516C8.76953 1.68359 8.57812 1.625 8.46094 1.50781C8.35156 1.38281 8.29688 1.17578 8.29688 0.886719C8.29688 0.597656 8.35156 0.394531 8.46094 0.277344C8.57812 0.152344 8.76953 0.0898438 9.03516 0.0898438H12.7148ZM23.9161 0.0898438C24.8927 0.0898438 25.7286 0.253906 26.4239 0.582031C27.127 0.910156 27.6583 1.37109 28.0177 1.96484C28.3848 2.55859 28.5684 3.25 28.5684 4.03906C28.5684 4.92969 28.2794 5.68359 27.7013 6.30078C27.1231 6.91797 26.3302 7.33984 25.3223 7.56641C25.7598 7.73828 26.1231 8.01562 26.4122 8.39844C26.6544 8.71875 26.8614 9.03906 27.0333 9.35938C27.2052 9.67188 27.3966 10.0586 27.6075 10.5195C27.8263 10.9961 27.9942 11.3438 28.1114 11.5625C28.4161 12.125 28.7677 12.4062 29.1661 12.4062H29.4942C29.7598 12.4062 29.9473 12.4688 30.0567 12.5938C30.1739 12.7109 30.2325 12.9141 30.2325 13.2031C30.2325 13.4922 30.1739 13.6992 30.0567 13.8242C29.9473 13.9414 29.7598 14 29.4942 14H28.6505C28.1817 14 27.7833 13.8789 27.4552 13.6367C27.1348 13.3867 26.8223 12.9648 26.5177 12.3711C26.3458 12.0273 26.1348 11.5742 25.8848 11.0117C25.6505 10.4961 25.4591 10.0977 25.3106 9.81641C25.17 9.52734 24.9981 9.24219 24.795 8.96094C24.5606 8.63281 24.2794 8.38672 23.9513 8.22266C23.6231 8.05078 23.2286 7.96484 22.7677 7.96484H21.1739V12.4062H22.6973C22.963 12.4062 23.1505 12.4688 23.2598 12.5938C23.377 12.7109 23.4356 12.9141 23.4356 13.2031C23.4356 13.4922 23.377 13.6992 23.2598 13.8242C23.1505 13.9414 22.963 14 22.6973 14H17.9864C17.7208 14 17.5294 13.9414 17.4122 13.8242C17.3028 13.6992 17.2481 13.4922 17.2481 13.2031C17.2481 12.9141 17.3028 12.7109 17.4122 12.5938C17.5294 12.4688 17.7208 12.4062 17.9864 12.4062H19.4161V1.68359H17.9864C17.7208 1.68359 17.5294 1.625 17.4122 1.50781C17.3028 1.38281 17.2481 1.17578 17.2481 0.886719C17.2481 0.597656 17.3028 0.394531 17.4122 0.277344C17.5294 0.152344 17.7208 0.0898438 17.9864 0.0898438H23.9161ZM21.1739 6.37109H23.5528C25.6622 6.37109 26.7169 5.59375 26.7169 4.03906C26.7169 3.28906 26.4513 2.71094 25.92 2.30469C25.3888 1.89062 24.6388 1.68359 23.67 1.68359H21.1739V6.37109ZM43.6955 0.0898438C43.9611 0.0898438 44.1486 0.152344 44.258 0.277344C44.3752 0.394531 44.4338 0.597656 44.4338 0.886719C44.4338 1.17578 44.3752 1.38281 44.258 1.50781C44.1486 1.625 43.9611 1.68359 43.6955 1.68359H40.6955V12.4062H43.9298C44.1955 12.4062 44.383 12.4688 44.4923 12.5938C44.6095 12.7109 44.6681 12.9141 44.6681 13.2031C44.6681 13.4922 44.6095 13.6992 44.4923 13.8242C44.383 13.9414 44.1955 14 43.9298 14H35.7033C35.4377 14 35.2463 13.9414 35.1291 13.8242C35.0197 13.6992 34.965 13.4922 34.965 13.2031C34.965 12.9141 35.0197 12.7109 35.1291 12.5938C35.2463 12.4688 35.4377 12.4062 35.7033 12.4062H38.9377V1.68359H35.9377C35.672 1.68359 35.4806 1.625 35.3634 1.50781C35.2541 1.38281 35.1994 1.17578 35.1994 0.886719C35.1994 0.597656 35.2541 0.394531 35.3634 0.277344C35.4806 0.152344 35.672 0.0898438 35.9377 0.0898438H43.6955ZM56.1272 0.0898438C57.3537 0.0898438 58.4319 0.371094 59.3616 0.933594C60.2912 1.48828 61.01 2.29297 61.5178 3.34766C62.0334 4.39453 62.2912 5.62891 62.2912 7.05078C62.2912 8.47266 62.0334 9.70703 61.5178 10.7539C61.01 11.8008 60.2912 12.6055 59.3616 13.168C58.4319 13.7227 57.3537 14 56.1272 14H50.6077C50.342 14 50.1506 13.9414 50.0334 13.8242C49.9241 13.6992 49.8694 13.4922 49.8694 13.2031C49.8694 12.9141 49.9241 12.7109 50.0334 12.5938C50.1506 12.4688 50.342 12.4062 50.6077 12.4062H51.9202V1.68359H50.6077C50.342 1.68359 50.1506 1.625 50.0334 1.50781C49.9241 1.38281 49.8694 1.17578 49.8694 0.886719C49.8694 0.597656 49.9241 0.394531 50.0334 0.277344C50.1506 0.152344 50.342 0.0898438 50.6077 0.0898438H56.1272ZM53.678 12.4062H55.8577C56.7873 12.4062 57.5959 12.2031 58.2834 11.7969C58.9709 11.3828 59.5022 10.7773 59.8772 9.98047C60.2522 9.17578 60.4397 8.19922 60.4397 7.05078C60.4397 5.90234 60.2522 4.92969 59.8772 4.13281C59.5022 3.32812 58.9709 2.71875 58.2834 2.30469C57.5959 1.89062 56.7873 1.68359 55.8577 1.68359H53.678V12.4062ZM72.7425 0.0898438C73.055 0.0898438 73.305 0.152344 73.4925 0.277344C73.6878 0.394531 73.8323 0.585938 73.9261 0.851562L78.0628 12.4062H78.7777C79.0433 12.4062 79.2308 12.4688 79.3402 12.5938C79.4573 12.7109 79.5159 12.9141 79.5159 13.2031C79.5159 13.4922 79.4573 13.6992 79.3402 13.8242C79.2308 13.9414 79.0433 14 78.7777 14H74.6292C74.3636 14 74.1722 13.9414 74.055 13.8242C73.9456 13.6992 73.8909 13.4922 73.8909 13.2031C73.8909 12.9141 73.9456 12.7109 74.055 12.5938C74.1722 12.4688 74.3636 12.4062 74.6292 12.4062H76.2113L75.2503 9.61719H69.5667L68.5941 12.4062H70.012C70.2777 12.4062 70.4652 12.4688 70.5745 12.5938C70.6917 12.7109 70.7503 12.9141 70.7503 13.2031C70.7503 13.4922 70.6917 13.6992 70.5745 13.8242C70.4652 13.9414 70.2777 14 70.012 14H66.098C65.8323 14 65.6409 13.9414 65.5238 13.8242C65.4144 13.6992 65.3597 13.4922 65.3597 13.2031C65.3597 12.9141 65.4144 12.7109 65.5238 12.5938C65.6409 12.4688 65.8323 12.4062 66.098 12.4062H66.7542L70.6331 1.68359H68.4417C68.1761 1.68359 67.9847 1.625 67.8675 1.50781C67.7581 1.38281 67.7034 1.17578 67.7034 0.886719C67.7034 0.597656 67.7581 0.394531 67.8675 0.277344C67.9847 0.152344 68.1761 0.0898438 68.4417 0.0898438H72.7425ZM72.3089 1.68359L70.1175 8.02344H74.7113L72.5316 1.68359H72.3089ZM94.5023 0.0898438C94.768 0.0898438 94.9555 0.152344 95.0648 0.277344C95.182 0.394531 95.2406 0.597656 95.2406 0.886719C95.2406 1.17578 95.182 1.38281 95.0648 1.50781C94.9555 1.625 94.768 1.68359 94.5023 1.68359H93.7055L89.6273 8.23438V12.4062H92.2758C92.5414 12.4062 92.7289 12.4688 92.8383 12.5938C92.9555 12.7109 93.0141 12.9141 93.0141 13.2031C93.0141 13.4922 92.9555 13.6992 92.8383 13.8242C92.7289 13.9414 92.5414 14 92.2758 14H85.2211C84.9555 14 84.7641 13.9414 84.6469 13.8242C84.5375 13.6992 84.4828 13.4922 84.4828 13.2031C84.4828 12.9141 84.5375 12.7109 84.6469 12.5938C84.7641 12.4688 84.9555 12.4062 85.2211 12.4062H87.8695V8.23438L83.8148 1.68359H82.9945C82.7289 1.68359 82.5375 1.625 82.4203 1.50781C82.3109 1.38281 82.2562 1.17578 82.2562 0.886719C82.2562 0.597656 82.3109 0.394531 82.4203 0.277344C82.5375 0.152344 82.7289 0.0898438 82.9945 0.0898438H86.9086C87.1742 0.0898438 87.3617 0.152344 87.4711 0.277344C87.5883 0.394531 87.6469 0.597656 87.6469 0.886719C87.6469 1.17578 87.5883 1.38281 87.4711 1.50781C87.3617 1.625 87.1742 1.68359 86.9086 1.68359H85.8187L88.7484 6.47656L91.7016 1.68359H90.9398C90.6742 1.68359 90.4828 1.625 90.3656 1.50781C90.2562 1.38281 90.2016 1.17578 90.2016 0.886719C90.2016 0.597656 90.2562 0.394531 90.3656 0.277344C90.4828 0.152344 90.6742 0.0898438 90.9398 0.0898438H94.5023ZM138.571 0.0898438C139.61 0.0898438 140.501 0.273438 141.243 0.640625C141.985 1.00781 142.548 1.52734 142.93 2.19922C143.321 2.87109 143.516 3.64844 143.516 4.53125C143.516 5.41406 143.321 6.1875 142.93 6.85156C142.548 7.50781 141.985 8.01953 141.243 8.38672C140.501 8.74609 139.61 8.92578 138.571 8.92578H135.817V12.4062H138.63C138.895 12.4062 139.083 12.4688 139.192 12.5938C139.309 12.7109 139.368 12.9141 139.368 13.2031C139.368 13.4922 139.309 13.6992 139.192 13.8242C139.083 13.9414 138.895 14 138.63 14H132.161C131.895 14 131.704 13.9414 131.587 13.8242C131.477 13.6992 131.423 13.4922 131.423 13.2031C131.423 12.9141 131.477 12.7109 131.587 12.5938C131.704 12.4688 131.895 12.4062 132.161 12.4062H134.059V1.68359H132.161C131.895 1.68359 131.704 1.625 131.587 1.50781C131.477 1.38281 131.423 1.17578 131.423 0.886719C131.423 0.597656 131.477 0.394531 131.587 0.277344C131.704 0.152344 131.895 0.0898438 132.161 0.0898438H138.571ZM135.817 7.33203H138.325C139.411 7.33203 140.239 7.08594 140.809 6.59375C141.38 6.10156 141.665 5.41406 141.665 4.53125C141.665 3.63281 141.376 2.93359 140.798 2.43359C140.227 1.93359 139.403 1.68359 138.325 1.68359H135.817V7.33203ZM186.964 0.0898438C187.878 0.0898438 188.655 0.246094 189.296 0.558594C189.936 0.871094 190.417 1.3125 190.737 1.88281C191.065 2.44531 191.229 3.10547 191.229 3.86328C191.229 4.45703 191.093 4.98438 190.819 5.44531C190.554 5.89844 190.171 6.26953 189.671 6.55859C190.499 6.82422 191.132 7.25391 191.569 7.84766C192.015 8.43359 192.237 9.16016 192.237 10.0273C192.237 10.8477 192.061 11.5547 191.71 12.1484C191.358 12.7422 190.847 13.1992 190.175 13.5195C189.503 13.8398 188.69 14 187.737 14H181.093C180.827 14 180.636 13.9414 180.518 13.8242C180.409 13.6992 180.354 13.4922 180.354 13.2031C180.354 12.9141 180.409 12.7109 180.518 12.5938C180.636 12.4688 180.827 12.4062 181.093 12.4062H182.522V1.68359H181.093C180.827 1.68359 180.636 1.625 180.518 1.50781C180.409 1.38281 180.354 1.17578 180.354 0.886719C180.354 0.597656 180.409 0.394531 180.518 0.277344C180.636 0.152344 180.827 0.0898438 181.093 0.0898438H186.964ZM184.28 6.01953H186.706C187.604 6.01953 188.284 5.83203 188.745 5.45703C189.206 5.08203 189.436 4.55078 189.436 3.86328C189.436 3.14453 189.21 2.60156 188.757 2.23438C188.304 1.86719 187.62 1.68359 186.706 1.68359H184.28V6.01953ZM184.28 12.4062H187.386C188.347 12.4062 189.085 12.1992 189.6 11.7852C190.124 11.3711 190.386 10.7852 190.386 10.0273C190.386 8.41797 189.405 7.61328 187.444 7.61328H184.28V12.4062ZM208.442 0.0898438C208.708 0.0898438 208.895 0.152344 209.005 0.277344C209.122 0.394531 209.181 0.597656 209.181 0.886719C209.181 1.17578 209.122 1.38281 209.005 1.50781C208.895 1.625 208.708 1.68359 208.442 1.68359H207.599V12.4062H208.442C208.708 12.4062 208.895 12.4688 209.005 12.5938C209.122 12.7109 209.181 12.9141 209.181 13.2031C209.181 13.4922 209.122 13.6992 209.005 13.8242C208.895 13.9414 208.708 14 208.442 14H204.763C204.497 14 204.306 13.9414 204.188 13.8242C204.079 13.6992 204.024 13.4922 204.024 13.2031C204.024 12.9141 204.079 12.7109 204.188 12.5938C204.306 12.4688 204.497 12.4062 204.763 12.4062H205.841V7.625H200.005V12.4062H201.083C201.349 12.4062 201.536 12.4688 201.645 12.5938C201.763 12.7109 201.821 12.9141 201.821 13.2031C201.821 13.4922 201.763 13.6992 201.645 13.8242C201.536 13.9414 201.349 14 201.083 14H197.403C197.138 14 196.946 13.9414 196.829 13.8242C196.72 13.6992 196.665 13.4922 196.665 13.2031C196.665 12.9141 196.72 12.7109 196.829 12.5938C196.946 12.4688 197.138 12.4062 197.403 12.4062H198.247V1.68359H197.403C197.138 1.68359 196.946 1.625 196.829 1.50781C196.72 1.38281 196.665 1.17578 196.665 0.886719C196.665 0.597656 196.72 0.394531 196.829 0.277344C196.946 0.152344 197.138 0.0898438 197.403 0.0898438H201.083C201.349 0.0898438 201.536 0.152344 201.645 0.277344C201.763 0.394531 201.821 0.597656 201.821 0.886719C201.821 1.17578 201.763 1.38281 201.645 1.50781C201.536 1.625 201.349 1.68359 201.083 1.68359H200.005V6.03125H205.841V1.68359H204.763C204.497 1.68359 204.306 1.625 204.188 1.50781C204.079 1.38281 204.024 1.17578 204.024 0.886719C204.024 0.597656 204.079 0.394531 204.188 0.277344C204.306 0.152344 204.497 0.0898438 204.763 0.0898438H208.442ZM219.538 0.0898438C219.851 0.0898438 220.101 0.152344 220.288 0.277344C220.483 0.394531 220.628 0.585938 220.722 0.851562L224.858 12.4062H225.573C225.839 12.4062 226.026 12.4688 226.136 12.5938C226.253 12.7109 226.312 12.9141 226.312 13.2031C226.312 13.4922 226.253 13.6992 226.136 13.8242C226.026 13.9414 225.839 14 225.573 14H221.425C221.159 14 220.968 13.9414 220.851 13.8242C220.741 13.6992 220.687 13.4922 220.687 13.2031C220.687 12.9141 220.741 12.7109 220.851 12.5938C220.968 12.4688 221.159 12.4062 221.425 12.4062H223.007L222.046 9.61719H216.362L215.39 12.4062H216.808C217.073 12.4062 217.261 12.4688 217.37 12.5938C217.487 12.7109 217.546 12.9141 217.546 13.2031C217.546 13.4922 217.487 13.6992 217.37 13.8242C217.261 13.9414 217.073 14 216.808 14H212.894C212.628 14 212.437 13.9414 212.319 13.8242C212.21 13.6992 212.155 13.4922 212.155 13.2031C212.155 12.9141 212.21 12.7109 212.319 12.5938C212.437 12.4688 212.628 12.4062 212.894 12.4062H213.55L217.429 1.68359H215.237C214.972 1.68359 214.78 1.625 214.663 1.50781C214.554 1.38281 214.499 1.17578 214.499 0.886719C214.499 0.597656 214.554 0.394531 214.663 0.277344C214.78 0.152344 214.972 0.0898438 215.237 0.0898438H219.538ZM219.105 1.68359L216.913 8.02344H221.507L219.327 1.68359H219.105ZM235.954 0.0898438C236.931 0.0898438 237.767 0.253906 238.462 0.582031C239.165 0.910156 239.696 1.37109 240.056 1.96484C240.423 2.55859 240.607 3.25 240.607 4.03906C240.607 4.92969 240.318 5.68359 239.739 6.30078C239.161 6.91797 238.368 7.33984 237.36 7.56641C237.798 7.73828 238.161 8.01562 238.45 8.39844C238.693 8.71875 238.9 9.03906 239.071 9.35938C239.243 9.67188 239.435 10.0586 239.646 10.5195C239.864 10.9961 240.032 11.3438 240.15 11.5625C240.454 12.125 240.806 12.4062 241.204 12.4062H241.532C241.798 12.4062 241.985 12.4688 242.095 12.5938C242.212 12.7109 242.271 12.9141 242.271 13.2031C242.271 13.4922 242.212 13.6992 242.095 13.8242C241.985 13.9414 241.798 14 241.532 14H240.689C240.22 14 239.821 13.8789 239.493 13.6367C239.173 13.3867 238.86 12.9648 238.556 12.3711C238.384 12.0273 238.173 11.5742 237.923 11.0117C237.689 10.4961 237.497 10.0977 237.349 9.81641C237.208 9.52734 237.036 9.24219 236.833 8.96094C236.599 8.63281 236.318 8.38672 235.989 8.22266C235.661 8.05078 235.267 7.96484 234.806 7.96484H233.212V12.4062H234.735C235.001 12.4062 235.189 12.4688 235.298 12.5938C235.415 12.7109 235.474 12.9141 235.474 13.2031C235.474 13.4922 235.415 13.6992 235.298 13.8242C235.189 13.9414 235.001 14 234.735 14H230.025C229.759 14 229.568 13.9414 229.45 13.8242C229.341 13.6992 229.286 13.4922 229.286 13.2031C229.286 12.9141 229.341 12.7109 229.45 12.5938C229.568 12.4688 229.759 12.4062 230.025 12.4062H231.454V1.68359H230.025C229.759 1.68359 229.568 1.625 229.45 1.50781C229.341 1.38281 229.286 1.17578 229.286 0.886719C229.286 0.597656 229.341 0.394531 229.45 0.277344C229.568 0.152344 229.759 0.0898438 230.025 0.0898438H235.954ZM233.212 6.37109H235.591C237.7 6.37109 238.755 5.59375 238.755 4.03906C238.755 3.28906 238.489 2.71094 237.958 2.30469C237.427 1.89062 236.677 1.68359 235.708 1.68359H233.212V6.37109ZM252.159 0.0898438C252.472 0.0898438 252.722 0.152344 252.909 0.277344C253.105 0.394531 253.249 0.585938 253.343 0.851562L257.48 12.4062H258.195C258.46 12.4062 258.648 12.4688 258.757 12.5938C258.874 12.7109 258.933 12.9141 258.933 13.2031C258.933 13.4922 258.874 13.6992 258.757 13.8242C258.648 13.9414 258.46 14 258.195 14H254.046C253.78 14 253.589 13.9414 253.472 13.8242C253.363 13.6992 253.308 13.4922 253.308 13.2031C253.308 12.9141 253.363 12.7109 253.472 12.5938C253.589 12.4688 253.78 12.4062 254.046 12.4062H255.628L254.667 9.61719H248.984L248.011 12.4062H249.429C249.695 12.4062 249.882 12.4688 249.991 12.5938C250.109 12.7109 250.167 12.9141 250.167 13.2031C250.167 13.4922 250.109 13.6992 249.991 13.8242C249.882 13.9414 249.695 14 249.429 14H245.515C245.249 14 245.058 13.9414 244.941 13.8242C244.831 13.6992 244.777 13.4922 244.777 13.2031C244.777 12.9141 244.831 12.7109 244.941 12.5938C245.058 12.4688 245.249 12.4062 245.515 12.4062H246.171L250.05 1.68359H247.859C247.593 1.68359 247.402 1.625 247.284 1.50781C247.175 1.38281 247.12 1.17578 247.12 0.886719C247.12 0.597656 247.175 0.394531 247.284 0.277344C247.402 0.152344 247.593 0.0898438 247.859 0.0898438H252.159ZM251.726 1.68359L249.534 8.02344H254.128L251.948 1.68359H251.726ZM269.138 0.0898438C269.404 0.0898438 269.591 0.152344 269.7 0.277344C269.818 0.394531 269.876 0.597656 269.876 0.886719C269.876 1.17578 269.818 1.38281 269.7 1.50781C269.591 1.625 269.404 1.68359 269.138 1.68359H266.302V12.4062H272.103V8.55078C272.103 8.27734 272.169 8.08203 272.302 7.96484C272.435 7.84766 272.661 7.78906 272.982 7.78906C273.302 7.78906 273.529 7.84766 273.661 7.96484C273.794 8.08203 273.861 8.27734 273.861 8.55078V13.2031C273.861 13.4922 273.802 13.6992 273.685 13.8242C273.575 13.9414 273.388 14 273.122 14H262.646C262.38 14 262.189 13.9414 262.072 13.8242C261.962 13.6992 261.908 13.4922 261.908 13.2031C261.908 12.9141 261.962 12.7109 262.072 12.5938C262.189 12.4688 262.38 12.4062 262.646 12.4062H264.544V1.68359H262.646C262.38 1.68359 262.189 1.625 262.072 1.50781C261.962 1.38281 261.908 1.17578 261.908 0.886719C261.908 0.597656 261.962 0.394531 262.072 0.277344C262.189 0.152344 262.38 0.0898438 262.646 0.0898438H269.138ZM288.355 0.0898438C288.62 0.0898438 288.808 0.152344 288.917 0.277344C289.035 0.394531 289.093 0.597656 289.093 0.886719C289.093 1.17578 289.035 1.38281 288.917 1.50781C288.808 1.625 288.62 1.68359 288.355 1.68359H285.355V12.4062H288.589C288.855 12.4062 289.042 12.4688 289.152 12.5938C289.269 12.7109 289.327 12.9141 289.327 13.2031C289.327 13.4922 289.269 13.6992 289.152 13.8242C289.042 13.9414 288.855 14 288.589 14H280.363C280.097 14 279.906 13.9414 279.788 13.8242C279.679 13.6992 279.624 13.4922 279.624 13.2031C279.624 12.9141 279.679 12.7109 279.788 12.5938C279.906 12.4688 280.097 12.4062 280.363 12.4062H283.597V1.68359H280.597C280.331 1.68359 280.14 1.625 280.023 1.50781C279.913 1.38281 279.859 1.17578 279.859 0.886719C279.859 0.597656 279.913 0.394531 280.023 0.277344C280.14 0.152344 280.331 0.0898438 280.597 0.0898438H288.355Z" fill="black"/>
</svg>
