<svg width="163" height="65" viewBox="0 0 163 65" fill="none" xmlns="http://www.w3.org/2000/svg">
<path d="M8.08594 9.08984C9.125 9.08984 10.0156 9.27344 10.7578 9.64062C11.5 10.0078 12.0625 10.5273 12.4453 11.1992C12.8359 11.8711 13.0312 12.6484 13.0312 13.5312C13.0312 14.4141 12.8359 15.1875 12.4453 15.8516C12.0625 16.5078 11.5 17.0195 10.7578 17.3867C10.0156 17.7461 9.125 17.9258 8.08594 17.9258H5.33203V21.4062H8.14453C8.41016 21.4062 8.59766 21.4688 8.70703 21.5938C8.82422 21.7109 8.88281 21.9141 8.88281 22.2031C8.88281 22.4922 8.82422 22.6992 8.70703 22.8242C8.59766 22.9414 8.41016 23 8.14453 23H1.67578C1.41016 23 1.21875 22.9414 1.10156 22.8242C0.992188 22.6992 0.9375 22.4922 0.9375 22.2031C0.9375 21.9141 0.992188 21.7109 1.10156 21.5938C1.21875 21.4688 1.41016 21.4062 1.67578 21.4062H3.57422V10.6836H1.67578C1.41016 10.6836 1.21875 10.625 1.10156 10.5078C0.992188 10.3828 0.9375 10.1758 0.9375 9.88672C0.9375 9.59766 0.992188 9.39453 1.10156 9.27734C1.21875 9.15234 1.41016 9.08984 1.67578 9.08984H8.08594ZM5.33203 16.332H7.83984C8.92578 16.332 9.75391 16.0859 10.3242 15.5938C10.8945 15.1016 11.1797 14.4141 11.1797 13.5312C11.1797 12.6328 10.8906 11.9336 10.3125 11.4336C9.74219 10.9336 8.91797 10.6836 7.83984 10.6836H5.33203V16.332ZM27.0919 11.9141C27.7013 11.9141 28.2716 12.0703 28.8028 12.3828C29.1153 12.5703 29.2716 12.8125 29.2716 13.1094C29.2716 13.25 29.2364 13.4141 29.1661 13.6016C29.002 14.0469 28.7755 14.2695 28.4864 14.2695C28.3692 14.2695 28.2598 14.2383 28.1583 14.1758C27.7755 13.9648 27.3653 13.8594 26.9278 13.8594C26.2247 13.8594 25.5177 14.1055 24.8067 14.5977C24.0958 15.082 23.5098 15.7305 23.0489 16.543C22.5958 17.3555 22.3692 18.2188 22.3692 19.1328V21.4062H26.3184C26.5841 21.4062 26.7716 21.4688 26.8809 21.5938C26.9981 21.7109 27.0567 21.9141 27.0567 22.2031C27.0567 22.4922 26.9981 22.6992 26.8809 22.8242C26.7716 22.9414 26.5841 23 26.3184 23H18.7716C18.5059 23 18.3145 22.9414 18.1973 22.8242C18.088 22.6992 18.0333 22.4922 18.0333 22.2031C18.0333 21.9141 18.088 21.7109 18.1973 21.5938C18.3145 21.4688 18.5059 21.4062 18.7716 21.4062H20.6114V13.7656H19.1231C18.8575 13.7656 18.6661 13.707 18.5489 13.5898C18.4395 13.4648 18.3848 13.2578 18.3848 12.9688C18.3848 12.6797 18.4395 12.4766 18.5489 12.3594C18.6661 12.2344 18.8575 12.1719 19.1231 12.1719H21.5138C21.7794 12.1719 21.9669 12.2344 22.0763 12.3594C22.1934 12.4766 22.252 12.6797 22.252 12.9688V15.3359C22.627 14.6484 23.0802 14.0469 23.6114 13.5312C24.1427 13.0156 24.7091 12.6172 25.3106 12.3359C25.9122 12.0547 26.5059 11.9141 27.0919 11.9141ZM39.8166 11.9141C40.8869 11.9141 41.8517 12.1562 42.7111 12.6406C43.5705 13.125 44.2423 13.8008 44.7267 14.668C45.2189 15.5273 45.465 16.5 45.465 17.5859C45.465 18.6719 45.2189 19.6484 44.7267 20.5156C44.2423 21.375 43.5705 22.0469 42.7111 22.5312C41.8517 23.0156 40.8869 23.2578 39.8166 23.2578C38.7463 23.2578 37.7814 23.0156 36.922 22.5312C36.0627 22.0469 35.3869 21.375 34.8947 20.5156C34.4103 19.6484 34.1681 18.6719 34.1681 17.5859C34.1681 16.5 34.4103 15.5273 34.8947 14.668C35.3869 13.8008 36.0627 13.125 36.922 12.6406C37.7814 12.1562 38.7463 11.9141 39.8166 11.9141ZM39.8166 13.6484C39.0588 13.6484 38.3908 13.8164 37.8127 14.1523C37.2423 14.4805 36.8009 14.9453 36.4884 15.5469C36.1759 16.1406 36.0197 16.8203 36.0197 17.5859C36.0197 18.3516 36.1759 19.0352 36.4884 19.6367C36.8009 20.2305 37.2423 20.6953 37.8127 21.0312C38.3908 21.3594 39.0588 21.5234 39.8166 21.5234C40.5744 21.5234 41.2384 21.3594 41.8088 21.0312C42.3869 20.6953 42.8322 20.2305 43.1447 19.6367C43.4572 19.0352 43.6134 18.3516 43.6134 17.5859C43.6134 16.8203 43.4572 16.1406 43.1447 15.5469C42.8322 14.9453 42.3869 14.4805 41.8088 14.1523C41.2384 13.8164 40.5744 13.6484 39.8166 13.6484ZM58.7756 12.1719C59.0412 12.1719 59.2287 12.2344 59.3381 12.3594C59.4553 12.4766 59.5139 12.6797 59.5139 12.9688V23.668C59.5139 25.043 59.2053 26.0742 58.5881 26.7617C57.9787 27.457 57.01 27.8047 55.6819 27.8047C55.0334 27.8047 54.3342 27.6797 53.5842 27.4297C52.8342 27.1875 52.1545 26.875 51.5452 26.4922C51.2873 26.3359 51.1584 26.1328 51.1584 25.8828C51.1584 25.7344 51.2092 25.5586 51.3108 25.3555C51.4983 24.9961 51.7248 24.8164 51.9905 24.8164C52.1233 24.8164 52.2444 24.8555 52.3537 24.9336C52.8928 25.2852 53.4514 25.5664 54.0295 25.7773C54.6077 25.9883 55.1584 26.0938 55.6819 26.0938C56.4475 26.0938 56.9827 25.8867 57.2873 25.4727C57.5998 25.0586 57.7561 24.4062 57.7561 23.5156V13.7656H52.7991C52.5334 13.7656 52.342 13.707 52.2248 13.5898C52.1155 13.4648 52.0608 13.2578 52.0608 12.9688C52.0608 12.6797 52.1155 12.4766 52.2248 12.3594C52.342 12.2344 52.5334 12.1719 52.7991 12.1719H58.7756ZM58.4006 7.02734C58.8303 7.02734 59.1233 7.08594 59.2795 7.20312C59.4358 7.3125 59.5139 7.50781 59.5139 7.78906V9.3125C59.5139 9.59375 59.4358 9.79297 59.2795 9.91016C59.1233 10.0195 58.8303 10.0742 58.4006 10.0742C57.9709 10.0742 57.678 10.0195 57.5217 9.91016C57.3655 9.79297 57.2873 9.59375 57.2873 9.3125V7.78906C57.2873 7.50781 57.3655 7.3125 57.5217 7.20312C57.678 7.08594 57.9709 7.02734 58.4006 7.02734ZM72.5433 11.9141C73.6761 11.9141 74.6409 12.1445 75.4378 12.6055C76.2425 13.0586 76.8597 13.6914 77.2894 14.5039C77.7191 15.3086 77.9652 16.2383 78.0277 17.293C78.0277 17.5586 77.9691 17.7461 77.8519 17.8555C77.7425 17.9648 77.555 18.0195 77.2894 18.0195H68.805C68.8597 19.1836 69.2034 20.0664 69.8363 20.668C70.4769 21.2617 71.3792 21.5586 72.5433 21.5586C73.262 21.5586 73.973 21.4688 74.6761 21.2891C75.3792 21.1016 75.9964 20.8555 76.5277 20.5508C76.6605 20.4805 76.7816 20.4453 76.8909 20.4453C77.1644 20.4453 77.387 20.6523 77.5589 21.0664C77.6292 21.2305 77.6644 21.3789 77.6644 21.5117C77.6644 21.8242 77.4925 22.0664 77.1488 22.2383C76.5472 22.543 75.8363 22.7891 75.0159 22.9766C74.1956 23.1641 73.3714 23.2578 72.5433 23.2578C71.3636 23.2578 70.3558 23.0312 69.5198 22.5781C68.6839 22.125 68.0472 21.4727 67.6097 20.6211C67.1722 19.7695 66.9534 18.7578 66.9534 17.5859C66.9534 16.4688 67.1917 15.4805 67.6683 14.6211C68.1448 13.7617 68.805 13.0977 69.6488 12.6289C70.4925 12.1523 71.4573 11.9141 72.5433 11.9141ZM72.5433 13.6133C71.5823 13.6133 70.7855 13.8594 70.1527 14.3516C69.5277 14.8359 69.1175 15.5117 68.9222 16.3789H76.0823C75.9183 15.4805 75.5394 14.7969 74.9456 14.3281C74.3597 13.8516 73.5589 13.6133 72.5433 13.6133ZM92.9672 11.9141C93.2875 11.9141 93.5141 11.9727 93.6469 12.0898C93.7797 12.207 93.8461 12.4023 93.8461 12.6758V16.0742C93.8461 16.3477 93.7797 16.543 93.6469 16.6602C93.5141 16.7773 93.2875 16.8359 92.9672 16.8359C92.6469 16.8359 92.4203 16.7773 92.2875 16.6602C92.1547 16.543 92.0883 16.3477 92.0883 16.0742C92.0883 15.5977 91.9633 15.1758 91.7133 14.8086C91.4633 14.4414 91.0883 14.1562 90.5883 13.9531C90.0961 13.75 89.5023 13.6484 88.807 13.6484C88.057 13.6484 87.3852 13.8164 86.7914 14.1523C86.1977 14.4883 85.7328 14.957 85.3969 15.5586C85.0609 16.1602 84.893 16.8359 84.893 17.5859C84.893 18.3438 85.0492 19.0234 85.3617 19.625C85.682 20.2188 86.1273 20.6836 86.6977 21.0195C87.2758 21.3555 87.9398 21.5234 88.6898 21.5234C89.4086 21.5234 90.1039 21.4141 90.7758 21.1953C91.4555 20.9688 92.0727 20.6445 92.6273 20.2227C92.7914 20.0977 92.9437 20.0352 93.0844 20.0352C93.3109 20.0352 93.5219 20.1953 93.7172 20.5156C93.8344 20.7109 93.893 20.8984 93.893 21.0781C93.893 21.3516 93.768 21.5781 93.518 21.7578C92.893 22.2266 92.1547 22.5938 91.3031 22.8594C90.4516 23.125 89.5805 23.2578 88.6898 23.2578C87.5727 23.2578 86.5844 23.0117 85.725 22.5195C84.8734 22.0273 84.2133 21.3516 83.7445 20.4922C83.2758 19.6328 83.0414 18.6641 83.0414 17.5859C83.0414 16.5078 83.2797 15.5391 83.7562 14.6797C84.2328 13.8203 84.8969 13.1445 85.7484 12.6523C86.6078 12.1602 87.5883 11.9141 88.6898 11.9141C89.3852 11.9141 90.0219 12.043 90.6 12.3008C91.1859 12.5508 91.682 12.9102 92.0883 13.3789V12.6758C92.0883 12.4023 92.1547 12.207 92.2875 12.0898C92.4203 11.9727 92.6469 11.9141 92.9672 11.9141ZM103.231 8.83203C103.551 8.83203 103.778 8.89062 103.911 9.00781C104.043 9.125 104.11 9.32031 104.11 9.59375V13.1094H108.926C109.192 13.1094 109.379 13.1719 109.489 13.2969C109.606 13.4141 109.665 13.6172 109.665 13.9062C109.665 14.1953 109.606 14.4023 109.489 14.5273C109.379 14.6445 109.192 14.7031 108.926 14.7031H104.11V18.9688C104.11 19.8594 104.262 20.5117 104.567 20.9258C104.879 21.3398 105.418 21.5469 106.184 21.5469C106.707 21.5469 107.258 21.4414 107.836 21.2305C108.415 21.0195 108.973 20.7383 109.512 20.3867C109.622 20.3086 109.743 20.2695 109.875 20.2695C110.141 20.2695 110.368 20.4492 110.555 20.8086C110.657 21.0117 110.707 21.1875 110.707 21.3359C110.707 21.5859 110.579 21.7891 110.321 21.9453C109.711 22.3281 109.032 22.6445 108.282 22.8945C107.532 23.1367 106.832 23.2578 106.184 23.2578C104.856 23.2578 103.883 22.9141 103.266 22.2266C102.657 21.5312 102.352 20.4961 102.352 19.1211V14.7031H99.9731C99.7075 14.7031 99.5161 14.6445 99.3989 14.5273C99.2895 14.4023 99.2348 14.1953 99.2348 13.9062C99.2348 13.6172 99.2895 13.4141 99.3989 13.2969C99.5161 13.1719 99.7075 13.1094 99.9731 13.1094H102.352V9.59375C102.352 9.32031 102.418 9.125 102.551 9.00781C102.684 8.89062 102.911 8.83203 103.231 8.83203ZM125.061 11.9141C125.381 11.9141 125.608 11.9727 125.741 12.0898C125.874 12.207 125.94 12.4023 125.94 12.6758V14.9023C125.94 15.1758 125.874 15.3711 125.741 15.4883C125.608 15.6055 125.381 15.6641 125.061 15.6641C124.795 15.6641 124.608 15.5625 124.499 15.3594C124.163 14.7188 123.674 14.2695 123.034 14.0117C122.393 13.7461 121.581 13.6133 120.596 13.6133C119.838 13.6133 119.245 13.75 118.815 14.0234C118.393 14.2891 118.182 14.6641 118.182 15.1484C118.182 15.3984 118.26 15.6016 118.417 15.7578C118.581 15.9141 118.819 16.043 119.131 16.1445C119.389 16.2305 119.686 16.2969 120.022 16.3438C120.366 16.3906 120.807 16.4414 121.346 16.4961C122.104 16.582 122.713 16.6641 123.174 16.7422C123.643 16.8125 124.085 16.9219 124.499 17.0703C125.124 17.2969 125.608 17.625 125.952 18.0547C126.303 18.4844 126.479 19.0508 126.479 19.7539C126.479 20.457 126.299 21.0742 125.94 21.6055C125.588 22.1289 125.069 22.5352 124.381 22.8242C123.702 23.1133 122.885 23.2578 121.932 23.2578C121.088 23.2578 120.346 23.1406 119.706 22.9062C119.065 22.6719 118.506 22.3164 118.03 21.8398V22.4961C118.03 22.7695 117.963 22.9648 117.831 23.082C117.698 23.1992 117.471 23.2578 117.151 23.2578C116.831 23.2578 116.604 23.1992 116.471 23.082C116.338 22.9648 116.272 22.7695 116.272 22.4961V19.6836C116.272 19.4102 116.338 19.2148 116.471 19.0977C116.604 18.9805 116.831 18.9219 117.151 18.9219C117.315 18.9219 117.444 18.9609 117.538 19.0391C117.631 19.1094 117.713 19.2305 117.784 19.4023C118.065 20.1523 118.534 20.6992 119.19 21.043C119.846 21.3867 120.721 21.5586 121.815 21.5586C122.721 21.5586 123.417 21.3945 123.901 21.0664C124.385 20.7383 124.628 20.3008 124.628 19.7539C124.628 19.4883 124.542 19.2695 124.37 19.0977C124.198 18.9258 123.952 18.7852 123.631 18.6758C123.358 18.5898 123.042 18.5195 122.682 18.4648C122.331 18.4023 121.881 18.3438 121.335 18.2891C120.6 18.2109 119.987 18.1289 119.495 18.043C119.003 17.957 118.549 17.832 118.135 17.668C117.565 17.4414 117.12 17.1289 116.799 16.7305C116.487 16.3242 116.331 15.7969 116.331 15.1484C116.331 14.4688 116.506 13.8867 116.858 13.4023C117.217 12.9102 117.71 12.5391 118.335 12.2891C118.967 12.0391 119.682 11.9141 120.479 11.9141C121.237 11.9141 121.928 12.0273 122.553 12.2539C123.186 12.4805 123.729 12.7969 124.182 13.2031V12.6758C124.182 12.4023 124.249 12.207 124.381 12.0898C124.514 11.9727 124.741 11.9141 125.061 11.9141Z" fill="black"/>
<path d="M140.667 19.9542L153.067 32.3535L109.933 31.6464" stroke="#E97575" stroke-width="3"/>
</svg>
