<svg width="117" height="65" viewBox="0 0 117 65" fill="none" xmlns="http://www.w3.org/2000/svg">
<path d="M10.7812 11.9141C11.3906 11.9141 11.9609 12.0703 12.4922 12.3828C12.8047 12.5703 12.9609 12.8125 12.9609 13.1094C12.9609 13.25 12.9258 13.4141 12.8555 13.6016C12.6914 14.0469 12.4648 14.2695 12.1758 14.2695C12.0586 14.2695 11.9492 14.2383 11.8477 14.1758C11.4648 13.9648 11.0547 13.8594 10.6172 13.8594C9.91406 13.8594 9.20703 14.1055 8.49609 14.5977C7.78516 15.082 7.19922 15.7305 6.73828 16.543C6.28516 17.3555 6.05859 18.2188 6.05859 19.1328V21.4062H10.0078C10.2734 21.4062 10.4609 21.4688 10.5703 21.5938C10.6875 21.7109 10.7461 21.9141 10.7461 22.2031C10.7461 22.4922 10.6875 22.6992 10.5703 22.8242C10.4609 22.9414 10.2734 23 10.0078 23H2.46094C2.19531 23 2.00391 22.9414 1.88672 22.8242C1.77734 22.6992 1.72266 22.4922 1.72266 22.2031C1.72266 21.9141 1.77734 21.7109 1.88672 21.5938C2.00391 21.4688 2.19531 21.4062 2.46094 21.4062H4.30078V13.7656H2.8125C2.54688 13.7656 2.35547 13.707 2.23828 13.5898C2.12891 13.4648 2.07422 13.2578 2.07422 12.9688C2.07422 12.6797 2.12891 12.4766 2.23828 12.3594C2.35547 12.2344 2.54688 12.1719 2.8125 12.1719H5.20312C5.46875 12.1719 5.65625 12.2344 5.76562 12.3594C5.88281 12.4766 5.94141 12.6797 5.94141 12.9688V15.3359C6.31641 14.6484 6.76953 14.0469 7.30078 13.5312C7.83203 13.0156 8.39844 12.6172 9 12.3359C9.60156 12.0547 10.1953 11.9141 10.7812 11.9141ZM23.6114 11.9141C24.7442 11.9141 25.7091 12.1445 26.5059 12.6055C27.3106 13.0586 27.9278 13.6914 28.3575 14.5039C28.7872 15.3086 29.0333 16.2383 29.0958 17.293C29.0958 17.5586 29.0372 17.7461 28.92 17.8555C28.8106 17.9648 28.6231 18.0195 28.3575 18.0195H19.8731C19.9278 19.1836 20.2716 20.0664 20.9044 20.668C21.545 21.2617 22.4473 21.5586 23.6114 21.5586C24.3302 21.5586 25.0411 21.4688 25.7442 21.2891C26.4473 21.1016 27.0645 20.8555 27.5958 20.5508C27.7286 20.4805 27.8497 20.4453 27.9591 20.4453C28.2325 20.4453 28.4552 20.6523 28.627 21.0664C28.6973 21.2305 28.7325 21.3789 28.7325 21.5117C28.7325 21.8242 28.5606 22.0664 28.2169 22.2383C27.6153 22.543 26.9044 22.7891 26.0841 22.9766C25.2638 23.1641 24.4395 23.2578 23.6114 23.2578C22.4317 23.2578 21.4239 23.0312 20.588 22.5781C19.752 22.125 19.1153 21.4727 18.6778 20.6211C18.2403 19.7695 18.0216 18.7578 18.0216 17.5859C18.0216 16.4688 18.2598 15.4805 18.7364 14.6211C19.213 13.7617 19.8731 13.0977 20.7169 12.6289C21.5606 12.1523 22.5255 11.9141 23.6114 11.9141ZM23.6114 13.6133C22.6505 13.6133 21.8536 13.8594 21.2208 14.3516C20.5958 14.8359 20.1856 15.5117 19.9903 16.3789H27.1505C26.9864 15.4805 26.6075 14.7969 26.0138 14.3281C25.4278 13.8516 24.627 13.6133 23.6114 13.6133ZM43.508 11.9141C43.8283 11.9141 44.0548 11.9727 44.1877 12.0898C44.3205 12.207 44.3869 12.4023 44.3869 12.6758V14.9023C44.3869 15.1758 44.3205 15.3711 44.1877 15.4883C44.0548 15.6055 43.8283 15.6641 43.508 15.6641C43.2423 15.6641 43.0548 15.5625 42.9455 15.3594C42.6095 14.7188 42.1213 14.2695 41.4806 14.0117C40.84 13.7461 40.0275 13.6133 39.0431 13.6133C38.2853 13.6133 37.6916 13.75 37.2619 14.0234C36.84 14.2891 36.6291 14.6641 36.6291 15.1484C36.6291 15.3984 36.7072 15.6016 36.8634 15.7578C37.0275 15.9141 37.2658 16.043 37.5783 16.1445C37.8361 16.2305 38.133 16.2969 38.4689 16.3438C38.8127 16.3906 39.2541 16.4414 39.7931 16.4961C40.5509 16.582 41.1603 16.6641 41.6213 16.7422C42.09 16.8125 42.5314 16.9219 42.9455 17.0703C43.5705 17.2969 44.0548 17.625 44.3986 18.0547C44.7502 18.4844 44.9259 19.0508 44.9259 19.7539C44.9259 20.457 44.7463 21.0742 44.3869 21.6055C44.0353 22.1289 43.5158 22.5352 42.8283 22.8242C42.1486 23.1133 41.3322 23.2578 40.3791 23.2578C39.5353 23.2578 38.7931 23.1406 38.1525 22.9062C37.5119 22.6719 36.9533 22.3164 36.4767 21.8398V22.4961C36.4767 22.7695 36.4103 22.9648 36.2775 23.082C36.1447 23.1992 35.9181 23.2578 35.5978 23.2578C35.2775 23.2578 35.0509 23.1992 34.9181 23.082C34.7853 22.9648 34.7189 22.7695 34.7189 22.4961V19.6836C34.7189 19.4102 34.7853 19.2148 34.9181 19.0977C35.0509 18.9805 35.2775 18.9219 35.5978 18.9219C35.7619 18.9219 35.8908 18.9609 35.9845 19.0391C36.0783 19.1094 36.1603 19.2305 36.2306 19.4023C36.5119 20.1523 36.9806 20.6992 37.6369 21.043C38.2931 21.3867 39.1681 21.5586 40.2619 21.5586C41.1681 21.5586 41.8634 21.3945 42.3478 21.0664C42.8322 20.7383 43.0744 20.3008 43.0744 19.7539C43.0744 19.4883 42.9884 19.2695 42.8166 19.0977C42.6447 18.9258 42.3986 18.7852 42.0783 18.6758C41.8048 18.5898 41.4884 18.5195 41.1291 18.4648C40.7775 18.4023 40.3283 18.3438 39.7814 18.2891C39.047 18.2109 38.4338 18.1289 37.9416 18.043C37.4494 17.957 36.9963 17.832 36.5822 17.668C36.0119 17.4414 35.5666 17.1289 35.2463 16.7305C34.9338 16.3242 34.7775 15.7969 34.7775 15.1484C34.7775 14.4688 34.9533 13.8867 35.3048 13.4023C35.6642 12.9102 36.1564 12.5391 36.7814 12.2891C37.4142 12.0391 38.1291 11.9141 38.9259 11.9141C39.6838 11.9141 40.3752 12.0273 41.0002 12.2539C41.633 12.4805 42.1759 12.7969 42.6291 13.2031V12.6758C42.6291 12.4023 42.6955 12.207 42.8283 12.0898C42.9611 11.9727 43.1877 11.9141 43.508 11.9141ZM59.9006 12.1719C60.1662 12.1719 60.3537 12.2344 60.4631 12.3594C60.5803 12.4766 60.6389 12.6797 60.6389 12.9688V21.4062H61.5998C61.8655 21.4062 62.053 21.4688 62.1623 21.5938C62.2795 21.7109 62.3381 21.9141 62.3381 22.2031C62.3381 22.4922 62.2795 22.6992 62.1623 22.8242C62.053 22.9414 61.8655 23 61.5998 23H59.7366C59.4709 23 59.2795 22.9414 59.1623 22.8242C59.053 22.707 58.9983 22.5039 58.9983 22.2148V20.7969C58.4827 21.5938 57.8772 22.2031 57.1819 22.625C56.4944 23.0469 55.7522 23.2578 54.9553 23.2578C54.2444 23.2578 53.6272 23.1055 53.1037 22.8008C52.5803 22.4883 52.178 22.043 51.8967 21.4648C51.6155 20.8867 51.4748 20.2109 51.4748 19.4375V13.7656H50.5139C50.2483 13.7656 50.0569 13.707 49.9397 13.5898C49.8303 13.4648 49.7756 13.2578 49.7756 12.9688C49.7756 12.6797 49.8303 12.4766 49.9397 12.3594C50.0569 12.2344 50.2483 12.1719 50.5139 12.1719H52.4944C52.76 12.1719 52.9475 12.2344 53.0569 12.3594C53.1741 12.4766 53.2327 12.6797 53.2327 12.9688V19.2617C53.2327 19.957 53.3928 20.5078 53.7131 20.9141C54.0334 21.3203 54.5061 21.5234 55.1311 21.5234C55.7952 21.5234 56.4123 21.332 56.9827 20.9492C57.5608 20.5664 58.0217 20.0391 58.3655 19.3672C58.7092 18.6953 58.8811 17.9453 58.8811 17.1172V13.7656H57.217C56.9514 13.7656 56.76 13.707 56.6428 13.5898C56.5334 13.4648 56.4787 13.2578 56.4787 12.9688C56.4787 12.6797 56.5334 12.4766 56.6428 12.3594C56.76 12.2344 56.9514 12.1719 57.217 12.1719H59.9006ZM79.1995 21.4062C79.4652 21.4062 79.6527 21.4688 79.762 21.5938C79.8792 21.7109 79.9378 21.9141 79.9378 22.2031C79.9378 22.4922 79.8792 22.6992 79.762 22.8242C79.6527 22.9414 79.4652 23 79.1995 23H77.4534C77.1878 23 76.9964 22.9414 76.8792 22.8242C76.7698 22.6992 76.7152 22.4922 76.7152 22.2031V15.2656C76.7152 14.7266 76.6253 14.3242 76.4456 14.0586C76.2738 13.7852 75.9925 13.6484 75.6019 13.6484C75.2347 13.6484 74.8948 13.8203 74.5823 14.1641C74.2698 14.5 74.0198 14.9727 73.8323 15.582C73.6527 16.1836 73.5628 16.8711 73.5628 17.6445V21.4062H74.2308C74.4964 21.4062 74.6839 21.4688 74.7933 21.5938C74.9105 21.7109 74.9691 21.9141 74.9691 22.2031C74.9691 22.4922 74.9105 22.6992 74.7933 22.8242C74.6839 22.9414 74.4964 23 74.2308 23H72.5433C72.2777 23 72.0863 22.9414 71.9691 22.8242C71.8597 22.6992 71.805 22.4922 71.805 22.2031V15.2656C71.805 14.7266 71.7152 14.3242 71.5355 14.0586C71.3636 13.7852 71.0823 13.6484 70.6917 13.6484C70.3245 13.6484 69.9847 13.8203 69.6722 14.1641C69.3597 14.5 69.1097 14.9727 68.9222 15.582C68.7425 16.1836 68.6527 16.8711 68.6527 17.6445V21.4062H69.262C69.5277 21.4062 69.7152 21.4688 69.8245 21.5938C69.9417 21.7109 70.0003 21.9141 70.0003 22.2031C70.0003 22.4922 69.9417 22.6992 69.8245 22.8242C69.7152 22.9414 69.5277 23 69.262 23H65.9339C65.6683 23 65.4769 22.9414 65.3597 22.8242C65.2503 22.6992 65.1956 22.4922 65.1956 22.2031C65.1956 21.9141 65.2503 21.7109 65.3597 21.5938C65.4769 21.4688 65.6683 21.4062 65.9339 21.4062H66.8948V13.7656H65.9339C65.6683 13.7656 65.4769 13.707 65.3597 13.5898C65.2503 13.4648 65.1956 13.2578 65.1956 12.9688C65.1956 12.6797 65.2503 12.4766 65.3597 12.3594C65.4769 12.2344 65.6683 12.1719 65.9339 12.1719H67.68C67.9456 12.1719 68.1331 12.2344 68.2425 12.3594C68.3597 12.4766 68.4183 12.6797 68.4183 12.9688V14.1289C68.7542 13.3945 69.1566 12.8438 69.6253 12.4766C70.0941 12.1016 70.6019 11.9141 71.1488 11.9141C71.68 11.9141 72.1448 12.0938 72.5433 12.4531C72.9417 12.8125 73.2113 13.3398 73.3519 14.0352C74.0472 12.6211 74.9456 11.9141 76.0472 11.9141C76.5081 11.9141 76.9183 12.0312 77.2777 12.2656C77.6448 12.4922 77.9339 12.8438 78.1448 13.3203C78.3636 13.7891 78.473 14.3672 78.473 15.0547V21.4062H79.1995ZM88.8539 11.9141C89.9867 11.9141 90.9516 12.1445 91.7484 12.6055C92.5531 13.0586 93.1703 13.6914 93.6 14.5039C94.0297 15.3086 94.2758 16.2383 94.3383 17.293C94.3383 17.5586 94.2797 17.7461 94.1625 17.8555C94.0531 17.9648 93.8656 18.0195 93.6 18.0195H85.1156C85.1703 19.1836 85.5141 20.0664 86.1469 20.668C86.7875 21.2617 87.6898 21.5586 88.8539 21.5586C89.5727 21.5586 90.2836 21.4688 90.9867 21.2891C91.6898 21.1016 92.307 20.8555 92.8383 20.5508C92.9711 20.4805 93.0922 20.4453 93.2016 20.4453C93.475 20.4453 93.6977 20.6523 93.8695 21.0664C93.9398 21.2305 93.975 21.3789 93.975 21.5117C93.975 21.8242 93.8031 22.0664 93.4594 22.2383C92.8578 22.543 92.1469 22.7891 91.3266 22.9766C90.5062 23.1641 89.682 23.2578 88.8539 23.2578C87.6742 23.2578 86.6664 23.0312 85.8305 22.5781C84.9945 22.125 84.3578 21.4727 83.9203 20.6211C83.4828 19.7695 83.2641 18.7578 83.2641 17.5859C83.2641 16.4688 83.5023 15.4805 83.9789 14.6211C84.4555 13.7617 85.1156 13.0977 85.9594 12.6289C86.8031 12.1523 87.768 11.9141 88.8539 11.9141ZM88.8539 13.6133C87.893 13.6133 87.0961 13.8594 86.4633 14.3516C85.8383 14.8359 85.4281 15.5117 85.2328 16.3789H92.393C92.2289 15.4805 91.85 14.7969 91.2562 14.3281C90.6703 13.8516 89.8695 13.6133 88.8539 13.6133Z" fill="#3C3C3C"/>
<path d="M102.719 22.0202L110.932 29.8604L82.9983 30.0521" stroke="#E97575" stroke-width="3"/>
</svg>
